<?xml version="1.0" encoding="UTF-8"?>
<svg width="24px" height="24px" viewBox="0 0 24 24" version="1.1" xmlns="http://www.w3.org/2000/svg" xmlns:xlink="http://www.w3.org/1999/xlink">
    <!-- Generator: Sketch 60.1 (88133) - https://sketch.com -->
    <title>喝彩</title>
    <desc>Created with Sketch.</desc>
    <defs>
        <rect id="path-1" x="0" y="0" width="24" height="24"></rect>
        <linearGradient x1="50%" y1="0%" x2="50%" y2="99.6120144%" id="linearGradient-3">
            <stop stop-color="#F8DFBB" offset="0%"></stop>
            <stop stop-color="#F8DAB8" offset="100%"></stop>
        </linearGradient>
        <path d="M11.8678029,8.4374308 C12.8389515,5.69772448 13.784064,4.59052229 14.7031403,5.11582424 C15.0848825,5.33401065 14.8724514,5.94242039 14.7031403,7.28783694 C14.3876712,9.79468574 14.6683459,11.9249795 14.7031403,14.8407363 C14.7528451,19.0059809 9.3292413,20.3844871 7.16907075,18.5462167 C6.28300105,17.7921856 4.54549097,16.4605624 3.3885867,14.4193962 C2.50669988,12.8634528 1.45200015,10.8659422 1.29173098,10.6237366 C0.450088117,9.35188439 -0.134801327,6.79594885 2.23128113,8.4374308 C1.72566848,7.5532735 0.449074305,5.7742891 0.450088117,4.54625455 C0.450853724,3.71900997 1.12898721,2.94598177 1.99953705,3.60517288 C1.48522343,2.35458578 1.51394433,1.48190518 2.14476476,1.08831555 C2.77558519,0.694725927 3.29386307,0.694725927 4.52349726,2.44575572 C4.39085208,1.74114904 4.98645316,0.0188575042 6.21330205,1.29645896 C6.48358233,1.57792026 7.07494963,2.30073228 7.72474327,3.19353822 C8.07027597,3.66829455 8.81623481,4.51702222 9.65565656,5.57453816 C10.0846197,6.11495222 10.8220018,7.06924977 11.8678029,8.4374308 Z" id="path-4"></path>
        <filter x="-7.1%" y="-5.5%" width="114.1%" height="111.3%" filterUnits="objectBoundingBox" id="filter-5">
            <feGaussianBlur stdDeviation="0.5" in="SourceAlpha" result="shadowBlurInner1"></feGaussianBlur>
            <feOffset dx="0" dy="0" in="shadowBlurInner1" result="shadowOffsetInner1"></feOffset>
            <feComposite in="shadowOffsetInner1" in2="SourceAlpha" operator="arithmetic" k2="-1" k3="1" result="shadowInnerInner1"></feComposite>
            <feColorMatrix values="0 0 0 0 0.9375   0 0 0 0 0.708161045   0 0 0 0 0.48879335  0 0 0 1 0" type="matrix" in="shadowInnerInner1"></feColorMatrix>
        </filter>
        <linearGradient x1="50%" y1="0%" x2="50%" y2="99.6120144%" id="linearGradient-6">
            <stop stop-color="#F8DFBB" offset="0%"></stop>
            <stop stop-color="#F8DAB8" offset="100%"></stop>
        </linearGradient>
        <path d="M11.6619721,7.980626 C12.6331208,5.24091967 13.5782333,4.13371749 14.4973095,4.65901943 C14.8790518,4.87720584 14.6666207,5.48561558 14.4973095,6.83103213 C14.1818404,9.33788093 14.4625151,11.4681747 14.4973095,14.3839315 C14.5470144,18.5491761 9.3557654,20.0327934 6.86917959,18.0805067 C5.91341089,17.3301065 4.33966024,16.0037576 3.18275597,13.9625914 C2.30086915,12.4066479 1.24616942,10.4091374 1.08590025,10.1669318 C0.244191866,8.89507958 -0.340632058,6.33914404 2.0254504,7.980626 C1.51983775,7.09646869 0.243243574,5.3174843 0.244191866,4.08944975 C0.245022993,3.26220516 0.923156474,2.48917696 1.79370632,3.14836807 C1.2793927,1.89778097 1.30811359,1.02510037 1.93893403,0.631510744 C2.56975446,0.237921118 3.08803234,0.237921118 4.31766653,1.98895091 C4.18502134,1.28434423 4.78062243,-0.437947304 6.00747131,0.839654154 C6.2777516,1.12111545 6.8691189,1.84392747 7.51891254,2.73673341 C7.86444523,3.21148974 8.61040408,4.06021741 9.44982583,5.11773335 C9.87878893,5.65814742 10.616171,6.61244497 11.6619721,7.980626 Z" id="path-7"></path>
        <filter x="-3.5%" y="-2.7%" width="106.9%" height="105.4%" filterUnits="objectBoundingBox" id="filter-9">
            <feGaussianBlur stdDeviation="0.5" in="SourceAlpha" result="shadowBlurInner1"></feGaussianBlur>
            <feOffset dx="0" dy="0" in="shadowBlurInner1" result="shadowOffsetInner1"></feOffset>
            <feComposite in="shadowOffsetInner1" in2="SourceAlpha" operator="arithmetic" k2="-1" k3="1" result="shadowInnerInner1"></feComposite>
            <feColorMatrix values="0 0 0 0 0.9375   0 0 0 0 0.708161045   0 0 0 0 0.48879335  0 0 0 1 0" type="matrix" in="shadowInnerInner1"></feColorMatrix>
        </filter>
        <radialGradient cx="46.6355502%" cy="25.7486233%" fx="46.6355502%" fy="25.7486233%" r="140.084471%" gradientTransform="translate(0.466356,0.257486),scale(1.000000,0.414333),rotate(55.953196),scale(1.000000,1.491562),translate(-0.466356,-0.257486)" id="radialGradient-10">
            <stop stop-color="#E6B582" offset="0%"></stop>
            <stop stop-color="#EBB98D" stop-opacity="0.40739729" offset="18.4266344%"></stop>
            <stop stop-color="#E5B385" offset="100%"></stop>
        </radialGradient>
        <radialGradient cx="50%" cy="0%" fx="50%" fy="0%" r="51.2189516%" gradientTransform="translate(0.500000,0.000000),scale(0.886654,1.000000),rotate(124.226657),scale(1.000000,3.561833),translate(-0.500000,-0.000000)" id="radialGradient-11">
            <stop stop-color="#F2D7B5" offset="0%"></stop>
            <stop stop-color="#E4B88C" stop-opacity="0.109318746" offset="41.3639462%"></stop>
            <stop stop-color="#BB804B" offset="100%"></stop>
        </radialGradient>
        <radialGradient cx="87.1270485%" cy="86.7495283%" fx="87.1270485%" fy="86.7495283%" r="143.153339%" gradientTransform="translate(0.871270,0.867495),scale(1.000000,0.626967),rotate(52.495878),scale(1.000000,0.796715),translate(-0.871270,-0.867495)" id="radialGradient-12">
            <stop stop-color="#E6B582" offset="0%"></stop>
            <stop stop-color="#EBB98D" stop-opacity="0.40739729" offset="18.5048545%"></stop>
            <stop stop-color="#E6B07F" offset="100%"></stop>
        </radialGradient>
        <radialGradient cx="87.1270485%" cy="86.7495283%" fx="87.1270485%" fy="86.7495283%" r="145.094675%" gradientTransform="translate(0.871270,0.867495),scale(1.000000,0.613792),rotate(53.081913),scale(1.000000,0.796715),translate(-0.871270,-0.867495)" id="radialGradient-13">
            <stop stop-color="#E6B582" offset="0%"></stop>
            <stop stop-color="#EBB98D" stop-opacity="0.40739729" offset="18.5048545%"></stop>
            <stop stop-color="#E6B07F" offset="100%"></stop>
        </radialGradient>
        <radialGradient cx="51.4517987%" cy="80.7819564%" fx="51.4517987%" fy="80.7819564%" r="64.1333826%" gradientTransform="translate(0.514518,0.807820),scale(0.726260,1.000000),rotate(-28.683297),scale(1.000000,1.491562),translate(-0.514518,-0.807820)" id="radialGradient-14">
            <stop stop-color="#E6B582" offset="0%"></stop>
            <stop stop-color="#EBB98D" stop-opacity="0.40739729" offset="18.4266344%"></stop>
            <stop stop-color="#E5B385" offset="100%"></stop>
        </radialGradient>
        <path d="M11.6235754,8.37385006 C12.594724,5.63414374 13.5398365,4.52694155 14.4589128,5.0522435 C14.840655,5.27042991 14.6282239,5.87883965 14.4589128,7.2242562 C14.1434437,9.731105 14.4241184,11.8613987 14.4589128,14.7771555 C14.5086176,18.9424002 9.08501381,20.3209064 6.92484325,18.482636 C6.03877355,17.7286049 4.30126347,16.3969817 3.1443592,14.3558154 C2.26247238,12.799872 1.20777265,10.8023615 1.04750348,10.5601558 C0.20586062,9.28830365 -0.379028825,6.7323681 1.98705363,8.37385006 C1.48144098,7.48969275 0.204846807,5.71070836 0.20586062,4.48267381 C0.206626226,3.65542923 0.884759708,2.88240102 1.75530956,3.54159214 C1.24099593,2.29100503 1.26971683,1.41832443 1.90053726,1.02473481 C2.5313577,0.631145184 3.04963557,0.631145184 4.27926976,2.38217498 C4.14662458,1.6775683 4.74222566,-0.0447232387 5.96907455,1.23287822 C6.23935483,1.51433952 6.83072213,2.23715154 7.48051577,3.12995747 C7.82604847,3.60471381 8.57200731,4.45344148 9.41142906,5.51095741 C9.84039217,6.05137148 10.5777743,7.00566903 11.6235754,8.37385006 Z" id="path-15"></path>
        <filter x="-7.1%" y="-5.5%" width="114.1%" height="111.3%" filterUnits="objectBoundingBox" id="filter-16">
            <feGaussianBlur stdDeviation="0.5" in="SourceAlpha" result="shadowBlurInner1"></feGaussianBlur>
            <feOffset dx="0" dy="0" in="shadowBlurInner1" result="shadowOffsetInner1"></feOffset>
            <feComposite in="shadowOffsetInner1" in2="SourceAlpha" operator="arithmetic" k2="-1" k3="1" result="shadowInnerInner1"></feComposite>
            <feColorMatrix values="0 0 0 0 0.9375   0 0 0 0 0.708161045   0 0 0 0 0.48879335  0 0 0 1 0" type="matrix" in="shadowInnerInner1"></feColorMatrix>
        </filter>
        <path d="M11.4177446,7.91704525 C12.3888933,5.17733893 13.3340058,4.07013674 14.2530821,4.59543869 C14.6348243,4.8136251 14.4223932,5.42203484 14.2530821,6.76745139 C13.9376129,9.27430019 14.2182876,11.4045939 14.2530821,14.3203507 C14.3027869,18.4855954 9.1115379,19.9692127 6.62495209,18.016926 C5.66918339,17.2665257 4.09543274,15.9401769 2.93852847,13.8990106 C2.05664165,12.3430672 1.00194192,10.3455567 0.841672753,10.103351 C-3.56312707e-05,8.83149884 -0.584859556,6.2755633 1.7812229,7.91704525 C1.27561025,7.03288795 -0.000983923869,5.25390355 -3.56312707e-05,4.025869 C0.000795495323,3.19862442 0.678928976,2.42559622 1.54947883,3.08478733 C1.0351652,1.83420022 1.0638861,0.961519627 1.69470653,0.567930001 C2.32552697,0.174340376 2.84380484,0.174340376 4.07343903,1.92537017 C3.94079385,1.22076349 4.53639493,-0.501528047 5.76324382,0.776073411 C6.0335241,1.05753471 6.6248914,1.78034673 7.27468504,2.67315267 C7.62021774,3.147909 8.36617658,3.99663667 9.20559833,5.0541526 C9.63456143,5.59456667 10.3719435,6.54886422 11.4177446,7.91704525 Z" id="path-17"></path>
        <filter x="-3.5%" y="-2.7%" width="106.9%" height="105.4%" filterUnits="objectBoundingBox" id="filter-19">
            <feGaussianBlur stdDeviation="0.5" in="SourceAlpha" result="shadowBlurInner1"></feGaussianBlur>
            <feOffset dx="0" dy="0" in="shadowBlurInner1" result="shadowOffsetInner1"></feOffset>
            <feComposite in="shadowOffsetInner1" in2="SourceAlpha" operator="arithmetic" k2="-1" k3="1" result="shadowInnerInner1"></feComposite>
            <feColorMatrix values="0 0 0 0 0.9375   0 0 0 0 0.708161045   0 0 0 0 0.48879335  0 0 0 1 0" type="matrix" in="shadowInnerInner1"></feColorMatrix>
        </filter>
    </defs>
    <g id="喝彩" stroke="none" stroke-width="1" fill="none" fill-rule="evenodd">
        <g id="编组-30">
            <mask id="mask-2" fill="white">
                <use xlink:href="#path-1"></use>
            </mask>
            <g id="蒙版"></g>
            <g mask="url(#mask-2)">
                <g transform="translate(-2.000000, -1.000000)">
                    <g id="编组-12" stroke-width="1" fill="none" transform="translate(0.000000, 2.500000)">
                        <g id="编组-29" transform="translate(12.703617, 12.629644) rotate(-28.000000) translate(-12.703617, -12.629644) translate(4.703617, 2.629644)">
                            <g id="路径-41">
                                <use fill="url(#linearGradient-3)" fill-rule="evenodd" xlink:href="#path-4"></use>
                                <use fill="black" fill-opacity="1" filter="url(#filter-5)" xlink:href="#path-4"></use>
                                <path stroke="#CD8E57" stroke-width="0.520833333" d="M11.7864168,7.90241254 C12.7573327,5.33906855 13.753152,4.27290295 14.8323645,4.8897315 C15.2861964,5.14912103 15.3018178,4.84472851 14.9958714,7.06037573 C14.9837216,7.14836363 14.9723275,7.23446406 14.9615191,7.32035208 C14.8669062,8.07218521 14.8220829,8.82196952 14.8160144,9.64771957 C14.8105155,10.3959632 14.8256865,10.8833614 14.8909171,12.4475831 C14.9348275,13.5005476 14.9549137,14.11488 14.9635384,14.8376289 C15.0115884,18.8641945 9.62461406,20.977792 7.00029904,18.7445421 C6.90850345,18.6664255 6.4278593,18.2642755 6.55150429,18.3679642 C6.34707653,18.1965315 6.18475995,18.0581632 6.01909431,17.912999 C5.57198026,17.5212163 5.17462006,17.1429182 4.79649914,16.7389426 C4.15154397,16.0498875 3.60411879,15.3277979 3.16203001,14.5478053 C3.02572284,14.3073139 2.87993855,14.0468606 2.72336503,13.7644125 C2.6699303,13.6679541 2.6699303,13.6679541 2.61656844,13.5713809 C2.46296667,13.2932293 1.14900806,10.8799593 1.07455925,10.7674491 C0.59861791,10.0482283 0.251836617,9.04819164 0.298917631,8.4186617 C0.350920066,7.72332642 0.79726397,7.49190187 1.5094073,7.75020832 C1.38658834,7.54908428 1.27442494,7.36473584 1.21755678,7.2680525 C0.992917517,6.8861362 0.809107771,6.54601657 0.656435295,6.2208778 C0.353797388,5.57636532 0.18927827,5.02240793 0.189671562,4.54601354 C0.190507936,3.64230425 0.802935121,2.98218119 1.54735534,3.11533822 C1.22584601,2.04840897 1.35940395,1.27137946 2.00691378,0.867376765 C2.780687,0.384594195 3.38885593,0.56088662 4.30800126,1.71861668 C4.37572236,1.43896615 4.49514499,1.16625229 4.65482809,0.965612157 C5.09382738,0.414014196 5.74687697,0.434759101 6.40113751,1.11608524 C6.71530256,1.44324674 7.33369886,2.21370732 7.93529774,3.04029444 C8.12195295,3.29675569 9.4970081,4.95580152 9.85962645,5.41263349 C10.2492231,5.90345313 10.8913213,6.73317321 11.7864168,7.90241254 Z M6.55150429,18.3679642 C6.55258978,18.3688744 6.55372183,18.3698237 6.55490114,18.3708125 C6.55377802,18.3698708 6.55265617,18.3689301 6.55153559,18.3679904 Z"></path>
                            </g>
                            <g id="路径-45" transform="translate(0.205831, 0.456805)">
                                <mask id="mask-8" fill="white">
                                    <use xlink:href="#path-7"></use>
                                </mask>
                                <g id="蒙版">
                                    <use fill="url(#linearGradient-6)" fill-rule="evenodd" xlink:href="#path-7"></use>
                                    <use fill="black" fill-opacity="1" filter="url(#filter-9)" xlink:href="#path-7"></use>
                                </g>
                                <path d="M14.7111399,5.30861122 C14.4519079,5.32066603 14.2812178,5.36743868 14.1990698,5.44892919 C14.1169218,5.53041969 14.0846587,5.9869024 14.1022807,6.81837731 C14.2777677,7.035057 14.4807208,7.10414201 14.7111399,7.02563233 C14.941559,6.94712266 15.2308248,6.22973007 15.5789373,4.87345457 L14.7111399,5.30861122 Z" id="路径-53" stroke="#DB9E69" stroke-width="0.520833333" fill="#FFF5E8" mask="url(#mask-8)"></path>
                                <path d="M14.2313918,4.63168673 C14.4830352,4.67015804 14.4830352,5.41026372 14.2313918,6.85200377 C14.0328466,7.98952844 13.8087882,9.73508333 13.8681851,12.4577327 C13.88407,13.185868 14.2313918,15.0082936 13.8681851,15.9250942 C13.5049784,16.8418949 12.9714073,17.7128718 10.0753727,19.5968008 C8.14468303,20.8527536 10.7999021,20.4342704 18.0410299,18.3413515 L14.8999646,-0.393224065 L14.2313918,4.63168673 Z" id="路径-49" fill="url(#radialGradient-10)" mask="url(#mask-8)"></path>
                                <path d="M0.927430347,7.55643547 C0.279303811,7.79375884 0.464123849,8.70472565 1.48189046,10.2893359 C1.90603406,10.9497057 2.37997902,11.7037746 2.86562695,12.4584193 C3.32865161,13.1779098 4.14959535,13.889875 4.60087777,14.5297063 C5.37996046,15.6342952 6.49788775,17.2138654 6.97368057,17.4252542 C7.61077741,17.7083084 7.97628969,17.9211834 9.74107953,17.8980551 C10.8584242,17.8834119 12.1316114,17.1551372 14.0348722,16.7193475 C17.3077827,15.9699489 16.4593537,19.4246862 11.4895851,27.0835593 L-7.39403567,14.1086618 L-1.11082663,6.35513563 L0.927430347,7.55643547 Z" id="路径-48" fill="url(#radialGradient-11)" mask="url(#mask-8)"></path>
                                <path d="M1.43724361,3.126175 C0.420765276,3.36428334 0.192449569,4.06402602 0.75229649,5.22540302 C1.23226743,6.27624653 2.3137717,7.95490594 3.20139224,9.42844058 C3.51129341,9.94290604 3.75400581,10.5682515 4.05528244,10.9070564 C4.65717321,11.5839214 4.65717321,12.550349 4.54034719,12.550349 C3.9534319,12.550349 3.48781198,11.0803064 2.80273233,9.84766836 C2.08690796,8.55971252 1.08887023,7.37418762 0.244227498,8.06064394 C-0.857777834,8.95626347 -1.42848158,7.22631251 -1.46788375,2.87079106 L1.43724361,3.126175 Z" id="路径-47" fill="url(#radialGradient-12)" mask="url(#mask-8)"></path>
                                <path d="M2.49110562,0.380846087 C1.79755625,0.638198254 1.66625269,1.23974987 2.09719491,2.18550092 C2.36848,2.78086648 2.91921659,4.23685493 3.74107538,5.55551291 C4.10292511,6.13609444 4.39251457,6.83867237 4.76472369,7.36813427 C5.05938189,7.78728116 5.45997053,8.05267419 5.60925633,8.38070409 C5.86365074,8.93969206 5.77329685,9.58399914 5.60925633,9.65574098 C5.08203765,9.96347059 4.12040702,7.69322386 3.15049109,5.93368126 C2.64888701,5.02371196 2.16343412,4.12656568 1.56649701,3.66872515 C1.14361086,3.34437872 0.739261397,3.27542191 0.386436335,3.4673689 C-0.822823985,4.12524134 -0.390580724,2.91205291 1.68316612,-0.172196414 L2.49110562,0.380846087 Z" id="路径-46" fill="url(#radialGradient-13)" mask="url(#mask-8)"></path>
                                <path d="M1.99886473,0.880075711 C2.36893405,0.715357797 2.43110717,0.706280475 3.045332,1.06893853 C3.30746401,1.22370969 4.33681578,2.40422572 5.33053293,3.70800587 C5.96723078,4.54336835 6.5296988,5.53179346 7.06188304,6.20067554 C7.64535017,6.93401313 8.2962982,7.65518541 8.57387985,7.37976561 C8.70129137,7.25334638 8.73169679,6.90356028 8.19574437,6.20067554 C7.94915725,5.8772843 7.38571054,5.58911355 7.06188304,5.15719033 C6.73213314,4.71736777 6.39079692,3.86964936 5.93294451,3.31094315 C5.69313179,3.0183055 5.29387574,2.54265731 4.73517633,1.88399857 C4.47219771,1.28389476 4.54160405,0.847711044 4.94339535,0.575447426 C6.10590139,-0.21229513 12.0432222,10.3966066 12.0432222,8.0376947 C12.0148479,6.91683732 13.8679621,3.00832637 14.7111399,5.55551291 C15.1329215,6.46255328 14.8480965,4.96702848 13.8566651,1.06893853 L3.7883415,-2.63912196 C1.50426611,-1.61506359 0.187981475,-0.796864706 -0.160512393,-0.184525306 C-0.509006261,0.427814094 -0.0507859477,1.11732205 1.21414855,1.88399857 C1.37361107,1.3765914 1.63518313,1.04195045 1.99886473,0.880075711 Z" fill="url(#radialGradient-14)" mask="url(#mask-8)"></path>
                            </g>
                            <path d="M4.15016803,12.0407262 C3.71617277,11.2899077 3.40067772,10.7373926 3.20368286,10.383181 C2.8665701,9.77702678 2.49381077,9.00517661 2.30330012,8.750434 C1.68145617,7.91893113 1.38661629,7.50050974 0.742469308,7.80059869" id="路径-42" stroke="#CD8E57" stroke-width="0.520833333" stroke-linecap="round"></path>
                            <path d="M5.07392262,8.750434 C4.34180317,7.37820446 3.79639225,6.40086726 3.43768986,5.8184224 C3.22574656,5.47427837 2.96735666,5.01568665 2.76915147,4.73354463 C2.15492204,3.85919854 1.57240567,3.21595101 1.19401103,3.27926665 C0.606355928,3.37759722 0.31850103,3.92172091 0.319995145,4.57246205 C0.321604064,5.2679504 0.687978156,6.08614203 0.899549382,6.51086776" id="路径-43" stroke="#CD8E57" stroke-width="0.520833333" stroke-linecap="round"></path>
                            <path d="M7.95254728,6.81194044 C7.46247353,6.23688252 7.11239726,5.80644067 6.90231849,5.52061489 C6.54018948,5.02791491 6.23291103,4.46222733 5.94945734,4.09235533 C5.64122562,3.69015109 5.30768123,3.28595611 4.88581039,2.75931308 C4.68335668,2.50657973 4.33973145,2.07516306 3.8549347,1.46506307 C3.20530096,0.630786311 2.55560987,0.527196996 1.90586144,1.15429512 C1.43119564,1.61241401 1.41815909,2.3259599 1.8667518,3.2949328 C1.9770621,3.53320616 2.21347589,3.92303132 2.57599315,4.4644083" id="路径-44" stroke="#CD8E57" stroke-width="0.520833333" stroke-linecap="round"></path>
                        </g>
                        <g id="编组-29" transform="translate(10.286239, 0.000000)">
                            <g id="路径-41">
                                <use fill="url(#linearGradient-3)" fill-rule="evenodd" xlink:href="#path-15"></use>
                                <use fill="black" fill-opacity="1" filter="url(#filter-16)" xlink:href="#path-15"></use>
                                <path stroke="#CD8E57" stroke-width="0.520833333" d="M11.5421893,7.8388318 C12.5131052,5.27548781 13.5089245,4.20932221 14.5881371,4.82615075 C15.0419689,5.08554029 15.0575903,4.78114777 14.7516439,6.99679499 C14.7394941,7.08478289 14.7281,7.17088331 14.7172916,7.25677134 C14.6226787,8.00860446 14.5778554,8.75838878 14.5717869,9.58413883 C14.5662881,10.3323825 14.581459,10.8197806 14.6466896,12.3840023 C14.6906,13.4369669 14.7106862,14.0512992 14.7193109,14.7740481 C14.7673609,18.8006138 9.38038657,20.9142112 6.75607155,18.6809613 C6.66427595,18.6028448 6.1836318,18.2006948 6.30727679,18.3043834 C6.10284903,18.1329507 5.94053245,17.9945825 5.77486682,17.8494183 C5.32775276,17.4576355 4.93039256,17.0793374 4.55227164,16.6753619 C3.90731647,15.9863068 3.35989129,15.2642171 2.91780251,14.4842246 C2.78149534,14.2437331 2.63571105,13.9832799 2.47913753,13.7008317 C2.4257028,13.6043734 2.4257028,13.6043734 2.37234094,13.5078002 C2.21873917,13.2296485 0.904780557,10.8163786 0.83033175,10.7038683 C0.354390412,9.98464755 0.00760911912,8.9846109 0.0546901336,8.35508096 C0.106692569,7.65974568 0.553036472,7.42832112 1.2651798,7.68662758 C1.14236085,7.48550354 1.03019744,7.3011551 0.973329283,7.20447175 C0.748690019,6.82255545 0.564880273,6.48243583 0.412207797,6.15729706 C0.10956989,5.51278457 -0.0549492276,4.95882718 -0.0545559356,4.4824328 C-0.0537195614,3.57872351 0.558707624,2.91860044 1.30312784,3.05175748 C0.981618512,1.98482823 1.11517645,1.20779871 1.76268628,0.803796022 C2.5364595,0.321013452 3.14462843,0.497305877 4.06377377,1.65503594 C4.13149486,1.37538541 4.25091749,1.10267154 4.41060059,0.902031414 C4.84959988,0.350433453 5.50264947,0.371178358 6.15691001,1.0525045 C6.47107506,1.379666 7.08947136,2.15012658 7.69107024,2.9767137 C7.87772546,3.23317494 9.25278061,4.89222078 9.61539896,5.34905274 C10.0049956,5.83987239 10.6470938,6.66959247 11.5421893,7.8388318 Z M6.30727679,18.3043834 C6.30836228,18.3052937 6.30949434,18.306243 6.31067364,18.3072318 C6.30955052,18.3062901 6.30842867,18.3053494 6.30730809,18.3044096 Z"></path>
                            </g>
                            <g id="路径-45" transform="translate(0.205831, 0.456805)">
                                <mask id="mask-18" fill="white">
                                    <use xlink:href="#path-17"></use>
                                </mask>
                                <g id="蒙版">
                                    <use fill="url(#linearGradient-6)" fill-rule="evenodd" xlink:href="#path-17"></use>
                                    <use fill="black" fill-opacity="1" filter="url(#filter-19)" xlink:href="#path-17"></use>
                                </g>
                                <path d="M14.4669124,5.24503048 C14.2076804,5.25708529 14.0369904,5.30385794 13.9548423,5.38534844 C13.8726943,5.46683895 13.8404312,5.92332165 13.8580532,6.75479656 C14.0335402,6.97147626 14.2364933,7.04056127 14.4669124,6.96205159 C14.6973315,6.88354191 14.9865973,6.16614932 15.3347098,4.80987382 L14.4669124,5.24503048 Z" id="路径-53" stroke="#DB9E69" stroke-width="0.520833333" fill="#FFF5E8" mask="url(#mask-18)"></path>
                                <path d="M13.9871643,4.56810598 C14.2388077,4.60657729 14.2388077,5.34668297 13.9871643,6.78842303 C13.7886191,7.9259477 13.5645607,9.67150258 13.6239576,12.394152 C13.6398425,13.1222873 13.9871643,14.9447128 13.6239576,15.8615135 C13.2607509,16.7783142 12.7271798,17.649291 9.83114524,19.5332201 C7.90045553,20.7891728 10.5556746,20.3706897 17.7968024,18.2777708 L14.6557371,-0.456804808 L13.9871643,4.56810598 Z" id="路径-49" fill="url(#radialGradient-10)" mask="url(#mask-18)"></path>
                                <path d="M0.683202849,7.49285472 C0.0350763138,7.7301781 0.219896351,8.64114491 1.23766296,10.2257552 C1.66180656,10.8861249 2.13575153,11.6401938 2.62139946,12.3948385 C3.08442411,13.1143291 3.90536785,13.8262943 4.35665027,14.4661256 C5.13573296,15.5707144 6.25366026,17.1502847 6.72945307,17.3616735 C7.36654992,17.6447276 7.73206219,17.8576026 9.49685203,17.8344744 C10.6141967,17.8198312 11.8873839,17.0915565 13.7906447,16.6557667 C17.0635552,15.9063682 16.2151262,19.3611055 11.2453576,27.0199786 L-7.63826316,14.0450811 L-1.35505412,6.29155489 L0.683202849,7.49285472 Z" id="路径-48" fill="url(#radialGradient-11)" mask="url(#mask-18)"></path>
                                <path d="M1.19301611,3.06259425 C0.176537778,3.3007026 -0.0517779291,4.00044528 0.508068992,5.16182228 C0.988039935,6.21266579 2.06954421,7.89132519 2.95716474,9.36485984 C3.26706591,9.87932529 3.50977831,10.5046707 3.81105494,10.8434757 C4.41294572,11.5203406 4.41294572,12.4867683 4.2961197,12.4867683 C3.70920441,12.4867683 3.24358448,11.0167257 2.55850483,9.78408761 C1.84268046,8.49613177 0.844642733,7.31060688 -1.16129328e-13,7.9970632 C-1.10200533,8.89268273 -1.67270908,7.16273177 -1.71211125,2.80721032 L1.19301611,3.06259425 Z" id="路径-47" fill="url(#radialGradient-12)" mask="url(#mask-18)"></path>
                                <path d="M2.24687812,0.317265344 C1.55332876,0.574617511 1.42202519,1.17616912 1.85296742,2.12192018 C2.1242525,2.71728573 2.67498909,4.17327419 3.49684788,5.49193217 C3.85869761,6.07251369 4.14828707,6.77509162 4.52049619,7.30455353 C4.8151544,7.72370041 5.21574303,7.98909345 5.36502883,8.31712335 C5.61942324,8.87611132 5.52906936,9.5204184 5.36502883,9.59216024 C4.83781015,9.89988985 3.87617953,7.62964312 2.90626359,5.87010052 C2.40465952,4.96013122 1.91920662,4.06298494 1.32226951,3.6051444 C0.899383359,3.28079797 0.495033899,3.21184116 0.142208837,3.40378816 C-1.06705148,4.0616606 -0.634808222,2.84847216 1.43893862,-0.235777157 L2.24687812,0.317265344 Z" id="路径-46" fill="url(#radialGradient-13)" mask="url(#mask-18)"></path>
                                <path d="M1.75463723,0.816494969 C2.12470655,0.651777054 2.18687967,0.642699732 2.8011045,1.00535779 C3.06323652,1.16012895 4.09258828,2.34064497 5.08630543,3.64442513 C5.72300328,4.4797876 6.2854713,5.46821272 6.81765554,6.1370948 C7.40112267,6.87043239 8.0520707,7.59160467 8.32965235,7.31618487 C8.45706387,7.18976564 8.48746929,6.83997954 7.95151687,6.1370948 C7.70492976,5.81370356 7.14148304,5.5255328 6.81765554,5.09360958 C6.48790564,4.65378703 6.14656942,3.80606862 5.68871701,3.24736241 C5.4489043,2.95472476 5.04964824,2.47907657 4.49094884,1.82041783 C4.22797022,1.22031402 4.29737655,0.784130301 4.69916785,0.511866683 C5.86167389,-0.275875873 11.7989947,10.3330259 11.7989947,7.97411396 C11.7706204,6.85325658 13.6237346,2.94474563 14.4669124,5.49193217 C14.888694,6.39897253 14.603869,4.90344774 13.6124376,1.00535779 L3.544114,-2.7027027 C1.26003861,-1.67864433 -0.0562460225,-0.860445449 -0.404739891,-0.248106049 C-0.753233759,0.364233351 -0.295013445,1.05374131 0.969921049,1.82041783 C1.12938357,1.31301066 1.39095563,0.978369706 1.75463723,0.816494969 Z" fill="url(#radialGradient-14)" mask="url(#mask-18)"></path>
                            </g>
                            <path d="M3.90594053,11.9771454 C3.47194527,11.2263269 3.15645022,10.6738119 2.95945536,10.3196002 C2.6223426,9.71344603 2.24958327,8.94159587 2.05907262,8.68685326 C1.43722867,7.85535039 1.14238879,7.43692899 0.49824181,7.73701795" id="路径-42" stroke="#CD8E57" stroke-width="0.520833333" stroke-linecap="round"></path>
                            <path d="M4.82969512,8.68685326 C4.09757567,7.31462372 3.55216475,6.33728651 3.19346236,5.75484165 C2.98151906,5.41069762 2.72312916,4.9521059 2.52492397,4.66996389 C1.91069454,3.7956178 1.32817817,3.15237026 0.949783529,3.21568591 C0.36212843,3.31401648 0.0742735323,3.85814017 0.0757676471,4.50888131 C0.077376566,5.20436966 0.443750658,6.02256129 0.655321885,6.44728701" id="路径-43" stroke="#CD8E57" stroke-width="0.520833333" stroke-linecap="round"></path>
                            <path d="M7.70831979,6.74835969 C7.21824603,6.17330178 6.86816976,5.74285993 6.65809099,5.45703415 C6.29596198,4.96433416 5.98868354,4.39864659 5.70522984,4.02877459 C5.39699813,3.62657034 5.06345373,3.22237537 4.64158289,2.69573234 C4.43912918,2.44299899 4.09550396,2.01158232 3.6107072,1.40148232 C2.96107346,0.567205569 2.31138237,0.463616253 1.66163394,1.09071438 C1.18696814,1.54883327 1.1739316,2.26237916 1.6225243,3.23135205 C1.73283461,3.46962541 1.96924839,3.85945058 2.33176565,4.40082756" id="路径-44" stroke="#CD8E57" stroke-width="0.520833333" stroke-linecap="round"></path>
                        </g>
                        <path d="M12.2294191,1.72139458 C12.7443296,1.33520071 13.0739861,1.14210377 13.2183883,1.14210377 C13.4035048,1.35631261 13.6369115,1.68368755 13.9186083,2.1242286 C13.8924853,2.60786657 13.5832744,2.84968555 12.9909757,2.84968555 C12.6986525,2.67962762 12.4448003,2.30353063 12.2294191,1.72139458 Z" id="路径-50" stroke="#DB9E69" stroke-width="0.520833333" fill="#FFF5E8"></path>
                        <path d="M15.099672,1.43442642 C15.3912907,1.12637847 15.6093012,0.972354499 15.7537034,0.972354499 C16.0313782,1.29366775 16.4406637,1.63065303 16.4640788,1.7230394 C16.5328398,2.00167534 16.1055872,2.44464184 15.7537034,2.27178875 C15.4613802,2.10173081 15.2433697,1.82261004 15.099672,1.43442642 Z" id="路径-50备份" stroke="#DB9E69" stroke-width="0.520833333" fill="#FFF5E8"></path>
                        <path d="M10.8650237,4.16762147 C11.1878751,3.83650162 11.4268071,3.6709417 11.5818199,3.6709417 C11.6545886,3.6689225 11.8430789,3.89734266 12.1472911,4.35620218 C12.1235456,4.87935129 11.8632742,5.05384626 11.3664769,4.8796871 C11.1097349,4.51928427 10.9425838,4.28192906 10.8650237,4.16762147 Z" id="路径-51" stroke="#DB9E69" stroke-width="0.520833333" fill="#FFF5E8"></path>
                        <path d="M11.0319008,8.56713262 C11.179782,8.28708123 11.3630883,8.16704743 11.5818199,8.2070312 C11.6718126,8.28561879 11.8153221,8.4607244 12.0123483,8.73234804 C12.1213383,8.88254295 12.0878949,9.09264741 11.9376791,9.20160863 C11.9273905,9.20907159 11.9166868,9.21594476 11.9056195,9.22219501 C11.723402,9.32510221 11.492605,9.26912117 11.3777845,9.09416586 L11.0319008,8.56713262 L11.0319008,8.56713262 Z" id="路径-52" stroke="#DB9E69" stroke-width="0.520833333" fill="#FFF5E8"></path>
                    </g>
                    <polygon id="路径-54" fill="#25B864" transform="translate(5.443243, 5.771638) rotate(-20.000000) translate(-5.443243, -5.771638) " points="3.49729727 6.06147852 4.46086712 4.54054054 7.38918916 7.00273569"></polygon>
                    <polygon id="路径-54" fill="#25B864" transform="translate(5.443244, 2.528395) rotate(10.000000) translate(-5.443244, -2.528395) " points="3.49729756 2.81823527 4.46086741 1.2972973 7.38918945 3.75949245"></polygon>
                    <polygon id="路径-54" fill="#25B864" transform="translate(9.335135, 2.528395) rotate(50.000000) translate(-9.335135, -2.528395) " points="7.38918945 2.81823527 8.35275931 1.2972973 11.2810813 3.75949245"></polygon>
                </g>
            </g>
        </g>
    </g>
</svg>