<?xml version="1.0" encoding="UTF-8"?>
<svg width="24px" height="24px" viewBox="0 0 24 24" version="1.1" xmlns="http://www.w3.org/2000/svg" xmlns:xlink="http://www.w3.org/1999/xlink">
    <!-- Generator: Sketch 60.1 (88133) - https://sketch.com -->
    <title>支持</title>
    <desc>Created with Sketch.</desc>
    <defs>
        <linearGradient x1="50%" y1="0%" x2="50%" y2="99.6120144%" id="linearGradient-1">
            <stop stop-color="#F8DFBB" offset="0%"></stop>
            <stop stop-color="#F8DAB8" offset="100%"></stop>
        </linearGradient>
        <path d="M13.555295,6.86678136 C14.1890946,5.31541707 14.8420145,4.92267064 14.7180622,3.14087912 C14.5684063,0.989601392 12.3951373,0.402773089 12.0697707,0.402773089 C10.738122,0.402773089 10.5669837,1.87032989 10.6132326,2.07527967 C11.2472832,4.8850407 10.1903822,5.32974575 9.5094425,6.31068916 C8.82850279,7.29163258 6.34830513,8.86695149 5.90775733,9.17086623 C5.46720952,9.47478097 3.81410986,9.7678316 3.01287866,9.81670188 C3.01287866,11.6660582 3.13881164,14.3023473 3.3906776,17.725569 C5.90775733,17.3702884 7.96574892,18.8773722 9.39001701,19.0906796 C10.8142851,19.3039871 14.0171975,19.6573336 15.4548762,19.5577089 C16.8925548,19.4580841 17.6983359,18.0695763 17.5023406,17.3702884 C18.9484099,16.8627265 18.6926379,15.1164442 18.0874734,14.4667186 C19.3793799,13.696514 18.8331066,11.9708244 18.4413604,11.6250417 C19.1900147,11.0320396 19.2483864,10.0898326 19.2483864,9.69373443 C19.2483864,8.43984476 17.5617201,8.11421825 17.213052,8.17872137 C15.6259002,8.47234228 15.4861929,8.60208933 14.2319323,8.49145551 C13.9020561,8.46235832 13.298491,7.38162728 13.555295,6.86678136 Z" id="path-2"></path>
        <filter x="-3.1%" y="-2.6%" width="106.2%" height="105.2%" filterUnits="objectBoundingBox" id="filter-3">
            <feGaussianBlur stdDeviation="0.5" in="SourceAlpha" result="shadowBlurInner1"></feGaussianBlur>
            <feOffset dx="0" dy="0" in="shadowBlurInner1" result="shadowOffsetInner1"></feOffset>
            <feComposite in="shadowOffsetInner1" in2="SourceAlpha" operator="arithmetic" k2="-1" k3="1" result="shadowInnerInner1"></feComposite>
            <feColorMatrix values="0 0 0 0 0.9375   0 0 0 0 0.708161045   0 0 0 0 0.48879335  0 0 0 1 0" type="matrix" in="shadowInnerInner1"></feColorMatrix>
        </filter>
        <radialGradient cx="50%" cy="57.6849584%" fx="50%" fy="57.6849584%" r="51.5920397%" gradientTransform="translate(0.500000,0.576850),scale(1.000000,0.846823),rotate(96.753332),scale(1.000000,1.599431),translate(-0.500000,-0.576850)" id="radialGradient-4">
            <stop stop-color="#F7D7B6" stop-opacity="0" offset="0%"></stop>
            <stop stop-color="#FFDDB4" stop-opacity="0.467903191" offset="56.9327967%"></stop>
            <stop stop-color="#DAA068" offset="100%"></stop>
            <stop stop-color="#C79362" offset="100%"></stop>
            <stop stop-color="#E3AD7A" offset="100%"></stop>
        </radialGradient>
        <linearGradient x1="50%" y1="0%" x2="51.1473972%" y2="65.0505426%" id="linearGradient-5">
            <stop stop-color="#F8DFBB" offset="0%"></stop>
            <stop stop-color="#F8DFBB" stop-opacity="0.91513792" offset="74.6126827%"></stop>
            <stop stop-color="#F8DAB8" stop-opacity="0" offset="100%"></stop>
        </linearGradient>
        <path d="M13.5424164,6.46400827 C14.176216,4.91264398 14.8291359,4.51989756 14.7051836,2.73810603 C14.5555276,0.586828303 12.3822586,2.27373675e-13 12.056892,2.27373675e-13 C10.7252433,2.27373675e-13 10.5979004,1.46041492 10.600354,1.67250658 C10.628016,4.06369155 10.1495718,4.84911142 9.46863204,5.83005484 C8.78769233,6.81099826 6.33542647,8.4641784 5.89487867,8.76809314 C5.45433087,9.07200788 3.8012312,9.36505851 3,9.41392879 C3,11.2632851 3.12593298,13.8995742 3.37779894,17.3227959 C5.89487867,16.9675153 7.95287027,18.4745991 9.37713836,18.6879066 C10.8014064,18.901214 14.0043188,19.2545605 15.4419975,19.1549358 C16.8796762,19.055311 17.6854572,17.6668033 17.4894619,16.9675153 C18.4284817,17.0007805 18.7537954,15.0637111 18.3999089,14.2469325 C19.6918155,13.476728 19.3518777,11.0307696 18.4284817,11.2222686 C19.1771361,10.6292665 19.2355078,9.29096134 19.2355078,9.29096134 C19.2355284,8.03707167 17.5488415,7.71144516 17.2001733,7.77594828 C15.6130215,8.06956919 15.5434139,8.24789191 14.2891533,8.13725809 C13.9592771,8.1081609 13.2856124,6.97885419 13.5424164,6.46400827 Z" id="path-6"></path>
        <filter x="-3.1%" y="-2.6%" width="106.2%" height="105.2%" filterUnits="objectBoundingBox" id="filter-7">
            <feGaussianBlur stdDeviation="0.5" in="SourceAlpha" result="shadowBlurInner1"></feGaussianBlur>
            <feOffset dx="0" dy="0" in="shadowBlurInner1" result="shadowOffsetInner1"></feOffset>
            <feComposite in="shadowOffsetInner1" in2="SourceAlpha" operator="arithmetic" k2="-1" k3="1" result="shadowInnerInner1"></feComposite>
            <feColorMatrix values="0 0 0 0 0.9375   0 0 0 0 0.708161045   0 0 0 0 0.48879335  0 0 0 1 0" type="matrix" in="shadowInnerInner1"></feColorMatrix>
        </filter>
        <path d="M13.5310666,7.48099456 C14.1648662,5.92963027 14.8420145,4.92267039 14.7180622,3.14087886 C14.5684063,0.989601136 12.3951373,0.402772833 12.0697707,0.402772833 C10.738122,0.402772833 10.6107791,1.86318775 10.6132326,2.07527941 C10.6408947,4.46646439 10.1611589,5.56763482 9.4815107,6.23282767 C8.80186248,6.89802053 6.34830513,8.86695123 5.90775733,9.17086597 C5.46720952,9.47478072 3.81410986,9.76783134 3.01287866,9.81670162 C3.01287866,11.666058 3.13881164,14.302347 3.3906776,17.7255688 C5.90775733,17.3702882 7.96574892,18.877372 9.39001701,19.0906794 C10.8142851,19.3039868 14.0171975,19.6573334 15.4548762,19.5577086 C16.8925548,19.4580839 17.6983359,18.0695761 17.5023406,17.3702882 C18.7742716,17.5552786 18.867057,14.9343597 18.2166411,14.6497053 C19.5085476,13.8795008 19.2531738,11.6882094 18.4413604,11.6250414 C19.1900147,11.0320393 19.3268236,9.71441977 19.3268236,9.71441977 C19.3268236,8.4605301 17.6532314,7.98004481 17.3008157,8.00222069 C15.5426399,8.11285451 15.6919503,8.65066475 14.4376897,8.54003093 C14.1078135,8.51093373 13.2742626,7.99584048 13.5310666,7.48099456 Z" id="path-8"></path>
        <linearGradient x1="50%" y1="63.0638661%" x2="15.5805796%" y2="50%" id="linearGradient-10">
            <stop stop-color="#ECBF8E" offset="0%"></stop>
            <stop stop-color="#F4CEA4" offset="100%"></stop>
        </linearGradient>
        <linearGradient x1="75.3575465%" y1="50%" x2="50%" y2="58.9197385%" id="linearGradient-11">
            <stop stop-color="#EDCCA4" offset="0%"></stop>
            <stop stop-color="#F7D4AB" offset="100%"></stop>
        </linearGradient>
        <linearGradient x1="73.8532985%" y1="50%" x2="50%" y2="58.9197385%" id="linearGradient-12">
            <stop stop-color="#EDCCA4" offset="0%"></stop>
            <stop stop-color="#F7D4AB" offset="100%"></stop>
        </linearGradient>
        <radialGradient cx="69.7908854%" cy="33.9541747%" fx="69.7908854%" fy="33.9541747%" r="93.5307172%" gradientTransform="translate(0.697909,0.339542),scale(1.000000,0.804823),rotate(125.020055),translate(-0.697909,-0.339542)" id="radialGradient-13">
            <stop stop-color="#E6B582" offset="0%"></stop>
            <stop stop-color="#EBB98D" stop-opacity="0.40739729" offset="65.9770091%"></stop>
            <stop stop-color="#DFA978" stop-opacity="0.921120301" offset="92.5802392%"></stop>
            <stop stop-color="#DDA775" stop-opacity="0" offset="100%"></stop>
        </radialGradient>
        <radialGradient cx="22.4595541%" cy="46.1196849%" fx="22.4595541%" fy="46.1196849%" r="98.7816007%" gradientTransform="translate(0.224596,0.461197),scale(0.786494,1.000000),rotate(5.169196),scale(1.000000,0.796715),translate(-0.224596,-0.461197)" id="radialGradient-14">
            <stop stop-color="#E6B582" offset="0%"></stop>
            <stop stop-color="#EBB98D" stop-opacity="0.40739729" offset="78.0605719%"></stop>
            <stop stop-color="#DDA775" offset="100%"></stop>
        </radialGradient>
        <radialGradient cx="33.9290762%" cy="37.0184337%" fx="33.9290762%" fy="37.0184337%" r="119.615334%" gradientTransform="translate(0.339291,0.370184),scale(0.502934,1.000000),rotate(6.230446),scale(1.000000,0.811829),translate(-0.339291,-0.370184)" id="radialGradient-15">
            <stop stop-color="#E6B582" offset="0%"></stop>
            <stop stop-color="#EBB98D" stop-opacity="0.40739729" offset="78.0605719%"></stop>
            <stop stop-color="#DDA775" offset="100%"></stop>
        </radialGradient>
        <radialGradient cx="19.6055153%" cy="7.76981089%" fx="19.6055153%" fy="7.76981089%" r="176.903824%" gradientTransform="translate(0.196055,0.077698),scale(0.429041,1.000000),rotate(5.801921),scale(1.000000,0.337004),translate(-0.196055,-0.077698)" id="radialGradient-16">
            <stop stop-color="#E6B582" offset="0%"></stop>
            <stop stop-color="#EBB98D" stop-opacity="0.40739729" offset="78.0605719%"></stop>
            <stop stop-color="#C7976A" offset="100%"></stop>
        </radialGradient>
        <radialGradient cx="50%" cy="0%" fx="50%" fy="0%" r="58.4639528%" gradientTransform="translate(0.500000,0.000000),scale(0.334599,1.000000),rotate(99.905334),scale(1.000000,3.561833),translate(-0.500000,-0.000000)" id="radialGradient-17">
            <stop stop-color="#F2D7B5" offset="0%"></stop>
            <stop stop-color="#E4B88C" stop-opacity="0.109318746" offset="59.3097547%"></stop>
            <stop stop-color="#BB804B" offset="100%"></stop>
        </radialGradient>
        <radialGradient cx="35.6281761%" cy="35.1929026%" fx="35.6281761%" fy="35.1929026%" r="78.4283541%" gradientTransform="translate(0.356282,0.351929),scale(0.850062,1.000000),rotate(21.456094),scale(1.000000,0.896251),translate(-0.356282,-0.351929)" id="radialGradient-18">
            <stop stop-color="#E6B582" offset="0%"></stop>
            <stop stop-color="#EBB98D" stop-opacity="0.40739729" offset="68.6816345%"></stop>
            <stop stop-color="#DDA775" offset="100%"></stop>
        </radialGradient>
        <radialGradient cx="20.2182009%" cy="54.1100458%" fx="20.2182009%" fy="54.1100458%" r="85.2891669%" gradientTransform="translate(0.202182,0.541100),scale(1.000000,0.665197),rotate(-20.702742),scale(1.000000,0.796715),translate(-0.202182,-0.541100)" id="radialGradient-19">
            <stop stop-color="#E6B582" offset="0%"></stop>
            <stop stop-color="#EBB98D" stop-opacity="0.931189904" offset="80.0279772%"></stop>
            <stop stop-color="#DDA775" offset="100%"></stop>
        </radialGradient>
        <linearGradient x1="50%" y1="0.253378378%" x2="50%" y2="100%" id="linearGradient-20">
            <stop stop-color="#E8AE7B" offset="0%"></stop>
            <stop stop-color="#C88850" offset="100%"></stop>
        </linearGradient>
        <path d="M14.0107368,6.85168333 C14.6445364,5.30031904 15.358683,4.92267064 15.2347308,3.14087912 C15.0850748,0.989601392 12.9118058,0.402773089 12.5864392,0.402773089 C11.2547905,0.402773089 11.0724402,1.87433022 11.1299011,2.07527967 C11.8920426,4.73196933 10.5449427,5.9190256 9.90668553,6.55241032 C9.26842832,7.18579505 6.86497365,8.86695149 6.42442585,9.17086623 C5.98387804,9.47478097 4.33077838,9.7678316 3.52954718,9.81670188 C3.52954718,11.6660582 3.65548016,14.3023473 3.90734612,17.725569 C6.42442585,17.3702884 8.48241744,18.8773722 9.90668553,19.0906796 C11.3309536,19.3039871 14.533866,19.6573336 15.9715447,19.5577089 C17.4092233,19.4580841 18.2150044,18.0695763 18.0190091,17.3702884 C18.9294561,17.1876319 19.2093064,15.1872333 18.6041419,14.6497056 C19.8960485,13.8795011 19.6136149,11.6882097 18.9580289,11.6250417 C19.7066832,11.0320396 19.6735544,10.1258973 19.6735616,9.69373443 C19.6735822,8.43984476 17.9875243,8.18590432 17.6388561,8.25040745 C16.0517043,8.54402836 15.5970882,8.69324477 14.4515754,8.54003118 C13.9137807,8.47389745 13.5912981,7.6120025 14.0107368,6.85168333 Z" id="path-21"></path>
        <filter x="-6.3%" y="-5.3%" width="112.7%" height="110.7%" filterUnits="objectBoundingBox" id="filter-22">
            <feGaussianBlur stdDeviation="0.5" in="SourceAlpha" result="shadowBlurInner1"></feGaussianBlur>
            <feOffset dx="0" dy="0" in="shadowBlurInner1" result="shadowOffsetInner1"></feOffset>
            <feComposite in="shadowOffsetInner1" in2="SourceAlpha" operator="arithmetic" k2="-1" k3="1" result="shadowInnerInner1"></feComposite>
            <feColorMatrix values="0 0 0 0 0.9375   0 0 0 0 0.708161045   0 0 0 0 0.48879335  0 0 0 1 0" type="matrix" in="shadowInnerInner1"></feColorMatrix>
        </filter>
        <linearGradient x1="50%" y1="0%" x2="50%" y2="100%" id="linearGradient-23">
            <stop stop-color="#4BDD9E" offset="0%"></stop>
            <stop stop-color="#2CBE6F" offset="37.9290871%"></stop>
            <stop stop-color="#2ABD6C" offset="75.0236553%"></stop>
            <stop stop-color="#23B060" offset="100%"></stop>
        </linearGradient>
        <linearGradient x1="50%" y1="0%" x2="50%" y2="100%" id="linearGradient-24">
            <stop stop-color="#25B864" offset="0%"></stop>
            <stop stop-color="#16A051" offset="100%"></stop>
        </linearGradient>
        <rect id="path-25" x="0" y="8.52651283e-14" width="4.65001668" height="10.3333704" rx="0.64583565"></rect>
        <linearGradient x1="50%" y1="0%" x2="50%" y2="84.9436958%" id="linearGradient-27">
            <stop stop-color="#25A65F" stop-opacity="0.138876748" offset="0%"></stop>
            <stop stop-color="#21AB5F" offset="100%"></stop>
        </linearGradient>
    </defs>
    <g id="支持" stroke="none" stroke-width="1" fill="none" fill-rule="evenodd">
        <g id="编组-13">
            <rect id="矩形" x="0" y="0" width="24" height="24"></rect>
            <g id="编组-4" transform="translate(1.456522, 1.456522)">
                <g id="点赞" transform="translate(0.516669, 0.000000)">
                    <rect id="矩形" fill="#000000" fill-rule="nonzero" opacity="0" x="0" y="0" width="20.6667408" height="20.6667408"></rect>
                    <g id="形状">
                        <use fill="url(#linearGradient-1)" fill-rule="evenodd" xlink:href="#path-2"></use>
                        <use fill="black" fill-opacity="1" filter="url(#filter-3)" xlink:href="#path-2"></use>
                    </g>
                    <path d="M13.4654178,7.05025532 C14.0992174,5.49889103 14.8420145,4.92267064 14.7180622,3.14087912 C14.5684063,0.989601392 12.3951373,0.402773089 12.0697707,0.402773089 C10.738122,0.402773089 10.6107791,1.86318801 10.6132326,2.07527967 C10.6408947,4.46646464 10.1624504,5.25188451 9.4815107,6.23282793 C8.80057099,7.21377135 6.34830513,8.86695149 5.90775733,9.17086623 C5.46720952,9.47478097 3.81410986,9.7678316 3.01287866,9.81670188 C3.01287866,11.6660582 3.13881164,14.3023473 3.3906776,17.725569 C5.90775733,17.3702884 7.96574892,18.8773722 9.39001701,19.0906796 C10.8142851,19.3039871 14.0171975,19.6573336 15.4548762,19.5577089 C16.8925548,19.4580841 17.6983359,18.0695763 17.5023406,17.3702884 C18.9025094,17.0282354 18.6926379,14.7604845 18.0874734,14.6497056 C19.3793799,13.8795011 18.8331066,11.9708244 18.4413604,11.6250417 C19.1900147,11.0320396 19.2483864,9.69373443 19.2483864,9.69373443 C19.2483864,8.43984476 17.5617201,8.11421825 17.213052,8.17872137 C15.6259002,8.47234228 15.4861929,8.60208933 14.2319323,8.49145551 C13.9020561,8.46235832 13.2086139,7.56510124 13.4654178,7.05025532 Z" id="形状" fill="url(#radialGradient-4)"></path>
                    <g id="形状">
                        <use fill="url(#linearGradient-5)" fill-rule="evenodd" xlink:href="#path-6"></use>
                        <use fill="black" fill-opacity="1" filter="url(#filter-7)" xlink:href="#path-6"></use>
                    </g>
                    <mask id="mask-9" fill="white">
                        <use xlink:href="#path-8"></use>
                    </mask>
                    <g id="路径"></g>
                    <path d="M15.0057051,14.5169018 C16.4965829,14.6269694 17.1536782,15.0049276 16.9769908,15.6507763 C16.8003035,16.2966251 16.4212741,16.8089103 15.8399026,17.1876319 L17.5651677,17.4035536 L19.5799112,16.492988 L18.6926379,14.8160917 L15.0057051,14.5169018 Z" id="路径-39" fill="url(#linearGradient-10)" mask="url(#mask-9)"></path>
                    <path d="M16.4096075,8.69187146 C17.179981,8.85643785 17.5651677,9.1711626 17.5651677,9.63604572 C17.5651677,10.3333704 17.7504181,11.4313889 16.225613,11.5597993 C17.3670951,11.5639693 18.1793843,11.4629241 18.6624805,11.2566636 C18.7438301,9.54680217 18.6605991,8.69187146 18.4127876,8.69187146 C18.1649761,8.69187146 17.4972494,8.69187146 16.4096075,8.69187146 Z" id="路径-3" fill="url(#linearGradient-11)" mask="url(#mask-9)"></path>
                    <path d="M16.9769908,11.6882097 C17.3691088,11.9189265 17.5651677,12.2126962 17.5651677,12.5695187 C17.5651677,13.1047524 17.7504181,14.1052221 16.225613,14.5073227 C17.7336915,14.5912461 18.5560331,14.1237227 18.6926379,13.1047524 L18.4127876,11.5597993 L16.9769908,11.6882097 Z" id="路径-15" fill="url(#linearGradient-12)" mask="url(#mask-9)"></path>
                    <path d="M10.7696592,0.128292938 C13.6898554,0.394966121 14.5719194,2.10018418 13.4158513,5.24394712 C12.8389534,6.63869945 12.4745648,7.43346969 12.7881172,8.1131058 C12.9582058,8.48177891 13.212696,8.95313592 14.1235313,8.8665183 C14.6136314,8.81991129 16.0655094,8.92838698 17.3473288,8.8665183 C19.161982,8.62507753 19.4405607,10.6318034 19.5647485,10.0898326 C19.7336199,9.35285739 18.4919065,6.72466298 15.8396084,2.20524936 C15.2152362,0.729008104 14.6432105,-0.176795351 14.1235313,-0.512161004 C13.603852,-0.847526657 12.8884322,-0.847526657 11.9772718,-0.512161004 L10.7696592,0.128292938 Z" id="路径-38" fill="url(#radialGradient-13)" opacity="0.53562128" mask="url(#mask-9)"></path>
                    <path d="M17.1723185,8.10780033 C17.9654758,8.64828062 18.3620545,9.05664502 18.3620545,9.33289354 C18.3620545,10.0110076 18.4127876,10.637555 18.0050446,11.0094568 C17.5973016,11.3813586 15.7270706,11.4856431 14.7008079,11.548739 C15.613121,11.7042941 16.9030275,11.7297284 18.5705275,11.6250417 C18.977221,11.1280685 19.203174,10.760301 19.2483864,10.5217391 C19.2761221,10.3753924 19.1895198,9.23632113 18.825488,8.76491669 C18.6725669,8.56689094 18.1215104,8.34785216 17.1723185,8.10780033 Z" id="路径-17" fill="url(#radialGradient-14)" mask="url(#mask-9)"></path>
                    <path d="M17.740204,11.6250417 C18.3559054,11.5380518 18.7095144,11.5380518 18.8010309,11.6250417 C19.6175019,12.4011279 19.2421023,13.7485045 18.2166411,14.6497056 C17.999978,14.6497056 16.2949482,14.565564 13.1015517,14.3972808 C15.7295341,14.3775629 17.2757516,14.2600058 17.740204,14.0446095 C18.1524816,13.8534101 18.3787042,13.2074519 18.2166411,12.1490933 C18.1775805,11.9509414 18.0187682,11.7762575 17.740204,11.6250417 Z" id="路径-35" fill="url(#radialGradient-15)" mask="url(#mask-9)"></path>
                    <path d="M16.7092464,17.4035536 C16.5591441,18.7219635 14.8625925,19.3811685 11.6195916,19.3811685 C6.75509028,19.3811685 15.9001291,21.3759924 17.2244868,20.151784 C18.107392,19.3356451 18.2743371,18.3475944 17.7253222,17.1876319 L16.7092464,17.4035536 Z" id="路径-2" fill="url(#radialGradient-16)" mask="url(#mask-9)"></path>
                    <path d="M3.41684629,16.492988 C5.12027389,16.5791691 6.22037487,16.8118817 6.71714921,17.1911256 C7.46231073,17.7599915 15.2000756,20.2738583 17.5023406,17.3702884 C17.9332551,19.15552 16.1475254,20.486145 12.1451516,21.3621633 L3.01287866,18.858401 L3.41684629,16.492988 Z" id="路径-36" fill="url(#radialGradient-17)" mask="url(#mask-9)"></path>
                    <path d="M16.0704302,14.5073227 C17.1213634,14.6653119 17.650379,14.8925074 17.6574771,15.188909 C17.6574771,15.5363635 17.6433119,16.2920886 17.4617377,16.5951496 C17.1786343,17.0676705 16.4258898,17.1091052 15.0057051,17.1091052 C17.2804565,17.5782013 18.1453029,17.5644591 18.3570147,16.492988 C18.4389417,16.078356 18.4858393,15.0381301 18.0874734,14.6497056 C17.6014311,14.6077395 16.9290833,14.5602786 16.0704302,14.5073227 Z" id="路径-37" fill="url(#radialGradient-18)" mask="url(#mask-9)"></path>
                    <path d="M10.3387527,1.8327442 C11.1224798,1.94131215 11.6699402,2.20394745 11.9811336,2.62065011 C12.4479239,3.24570409 12.3724756,4.30202281 11.0998714,4.30202281 C10.2514686,4.30202281 9.83927559,3.9544586 9.86329241,3.25933017 L9.86329241,1.99559612 L10.3387527,1.8327442 Z" id="路径-40" stroke="#DB9E69" stroke-width="0.52173913" fill="#FFFFFF" mask="url(#mask-9)"></path>
                    <path d="M4.21730442,10.1831275 C8.82618983,8.79957606 11.1695161,6.55756337 11.2472832,3.45708943 C11.3250503,0.356615498 12.0943404,-0.468938174 13.5551535,0.980428418 L12.4269451,-3.85459124 L5.48997233,0.402773089 L4.21730442,10.1831275 Z" id="路径-16" fill="url(#radialGradient-19)" opacity="0.396112351" mask="url(#mask-9)"></path>
                </g>
                <g id="形状">
                    <use fill="black" fill-opacity="1" filter="url(#filter-22)" xlink:href="#path-21"></use>
                    <path stroke="url(#linearGradient-20)" stroke-width="0.52173913" d="M19.3993575,11.5623587 C20.0065193,12.1554471 19.8878013,13.9099755 18.9755915,14.7012596 C19.4416245,15.5033886 19.1211247,17.1186385 18.3109035,17.540519 C18.3755575,18.5172609 17.313924,19.7261831 15.9895785,19.8179544 C14.7486721,19.9039436 11.8802669,19.6500347 9.86804698,19.3486719 C9.5799962,19.3055316 9.26500018,19.2151645 8.86323528,19.0687431 C8.623406,18.9813384 7.65759086,18.599559 7.75326825,18.6367237 C6.21224165,18.0381302 5.1464855,17.8141224 3.94380592,17.9838782 L3.66764464,18.0228577 L3.64717979,17.7447109 C3.39488538,14.3156659 3.26867761,11.6736244 3.26867761,9.81670188 L3.26867761,9.57125899 L3.51366522,9.55631622 C4.43481066,9.50013189 5.93737002,9.189943 6.27629231,8.95613527 C6.68454993,8.67449612 7.34642282,8.20635549 7.93753198,7.7745404 C8.81238382,7.13544657 9.45269722,6.63541308 9.72293104,6.36724225 C10.1518753,5.94157255 10.1253722,5.96859609 10.2784504,5.78677602 C11.0630317,4.85488221 11.3393309,3.75133846 10.8790842,2.14700005 C10.675344,1.43448991 11.3491232,0.141903524 12.5864392,0.141903524 C13.6965564,0.141903524 15.3677765,1.29437212 15.4949714,3.12277519 C15.558639,4.0379863 15.4271064,4.63895143 15.0723201,5.33741806 C15.0457737,5.38967976 14.5634178,6.26312811 14.414468,6.58057041 C14.3575297,6.70191754 14.3037157,6.82432161 14.2522302,6.95034383 L14.2391545,6.97769252 C13.9199497,7.55631689 14.1236484,8.2368707 14.486159,8.28146416 C14.8986185,8.33663107 15.2178799,8.35152991 15.5396007,8.3321333 C15.7819999,8.317519 16.0328758,8.28377063 16.3875067,8.22061811 C16.5727496,8.18763013 17.390463,8.03106375 17.5914008,7.99389054 C18.4797867,7.82954037 19.9344509,8.49310152 19.9344311,9.69373872 C19.9344574,9.71983468 19.9344574,9.71983468 19.9345388,9.74800499 C19.9359418,10.239399 19.9068934,10.5421667 19.7774016,10.9057107 C19.690986,11.1483198 19.5665633,11.368534 19.3993575,11.5623587 Z"></path>
                </g>
                <g id="矩形" transform="translate(0.914934, 8.525031)">
                    <mask id="mask-26" fill="white">
                        <use xlink:href="#path-25"></use>
                    </mask>
                    <use id="蒙版" stroke="url(#linearGradient-24)" stroke-width="0.52173913" fill="url(#linearGradient-23)" xlink:href="#path-25"></use>
                    <rect fill="url(#linearGradient-27)" mask="url(#mask-26)" x="-6.70574707e-14" y="7.94377849" width="5.48960302" height="2.74480151"></rect>
                </g>
                <rect id="蒙版" stroke="url(#linearGradient-24)" stroke-width="0.52173913" x="0.914933837" y="8.52503058" width="4.65001668" height="10.3333704" rx="0.64583565"></rect>
            </g>
        </g>
    </g>
</svg>