<?xml version="1.0" encoding="UTF-8"?>
<svg width="24px" height="24px" viewBox="0 0 24 24" version="1.1" xmlns="http://www.w3.org/2000/svg" xmlns:xlink="http://www.w3.org/1999/xlink">
    <!-- Generator: Sketch 60.1 (88133) - https://sketch.com -->
    <title>摸摸</title>
    <desc>Created with Sketch.</desc>
    <defs>
        <rect id="path-1" x="0" y="0" width="24" height="24"></rect>
        <linearGradient x1="50%" y1="0%" x2="50%" y2="100%" id="linearGradient-3">
            <stop stop-color="#FFE073" offset="0%"></stop>
            <stop stop-color="#FFD84D" offset="100%"></stop>
        </linearGradient>
        <filter x="-187.5%" y="-187.5%" width="475.0%" height="475.0%" filterUnits="objectBoundingBox" id="filter-4">
            <feGaussianBlur stdDeviation="1.85473469" in="SourceGraphic"></feGaussianBlur>
        </filter>
        <filter x="-187.5%" y="-187.5%" width="475.0%" height="475.0%" filterUnits="objectBoundingBox" id="filter-5">
            <feGaussianBlur stdDeviation="1.85473469" in="SourceGraphic"></feGaussianBlur>
        </filter>
        <linearGradient x1="50%" y1="0%" x2="50%" y2="100%" id="linearGradient-6">
            <stop stop-color="#FFD966" offset="0%"></stop>
            <stop stop-color="#FFE071" offset="100%"></stop>
        </linearGradient>
        <linearGradient x1="42.8859784%" y1="5.45878261%" x2="50%" y2="89.3191941%" id="linearGradient-7">
            <stop stop-color="#FFE478" offset="0%"></stop>
            <stop stop-color="#FEB22C" offset="100%"></stop>
        </linearGradient>
        <circle id="path-8" cx="9.22697368" cy="9.22697368" r="9.22697368"></circle>
        <linearGradient x1="51.3355593%" y1="45.2123224%" x2="50%" y2="54.7876776%" id="linearGradient-10">
            <stop stop-color="#FFD95E" stop-opacity="0" offset="0%"></stop>
            <stop stop-color="#FFE077" stop-opacity="0.659601985" offset="40.8836571%"></stop>
            <stop stop-color="#FFE483" offset="100%"></stop>
        </linearGradient>
        <circle id="path-11" cx="3" cy="3" r="3"></circle>
        <filter x="-25.3%" y="-25.3%" width="150.7%" height="150.7%" filterUnits="objectBoundingBox" id="filter-12">
            <feGaussianBlur stdDeviation="0.5" in="SourceAlpha" result="shadowBlurInner1"></feGaussianBlur>
            <feOffset dx="0" dy="1" in="shadowBlurInner1" result="shadowOffsetInner1"></feOffset>
            <feComposite in="shadowOffsetInner1" in2="SourceAlpha" operator="arithmetic" k2="-1" k3="1" result="shadowInnerInner1"></feComposite>
            <feColorMatrix values="0 0 0 0 1   0 0 0 0 0.949747687   0 0 0 0 0.772294207  0 0 0 1 0" type="matrix" in="shadowInnerInner1"></feColorMatrix>
        </filter>
        <circle id="path-13" cx="3" cy="3" r="3"></circle>
        <filter x="-25.3%" y="-25.3%" width="150.7%" height="150.7%" filterUnits="objectBoundingBox" id="filter-14">
            <feGaussianBlur stdDeviation="0.5" in="SourceAlpha" result="shadowBlurInner1"></feGaussianBlur>
            <feOffset dx="0" dy="1" in="shadowBlurInner1" result="shadowOffsetInner1"></feOffset>
            <feComposite in="shadowOffsetInner1" in2="SourceAlpha" operator="arithmetic" k2="-1" k3="1" result="shadowInnerInner1"></feComposite>
            <feColorMatrix values="0 0 0 0 1   0 0 0 0 0.949747687   0 0 0 0 0.772294207  0 0 0 1 0" type="matrix" in="shadowInnerInner1"></feColorMatrix>
        </filter>
        <radialGradient cx="86.0142463%" cy="12.005928%" fx="86.0142463%" fy="12.005928%" r="139.289061%" gradientTransform="translate(0.860142,0.120059),scale(0.595616,1.000000),rotate(172.497171),translate(-0.860142,-0.120059)" id="radialGradient-15">
            <stop stop-color="#FFB530" offset="0%"></stop>
            <stop stop-color="#FFD669" offset="63.0776732%"></stop>
            <stop stop-color="#FFE27C" offset="100%"></stop>
        </radialGradient>
        <linearGradient x1="95.6722648%" y1="29.9687124%" x2="-11.058025%" y2="29.9687124%" id="linearGradient-16">
            <stop stop-color="#FFB530" offset="0%"></stop>
            <stop stop-color="#FFB937" offset="68.7070081%"></stop>
            <stop stop-color="#FFE27C" offset="100%"></stop>
        </linearGradient>
        <linearGradient x1="0%" y1="28.6004084%" x2="100%" y2="73.759968%" id="linearGradient-17">
            <stop stop-color="#FFE478" offset="0%"></stop>
            <stop stop-color="#FEB22C" offset="100%"></stop>
        </linearGradient>
    </defs>
    <g id="摸摸" stroke="none" stroke-width="1" fill="none" fill-rule="evenodd">
        <g id="编组-65">
            <mask id="mask-2" fill="white">
                <use xlink:href="#path-1"></use>
            </mask>
            <g id="蒙版"></g>
            <g id="编组-70" mask="url(#mask-2)">
                <g transform="translate(1.500000, -3.500000)" id="编组-46">
                    <g transform="translate(0.274286, 0.000000)">
                        <g id="编组-40" transform="translate(0.494574, 0.516421)">
                            <g id="编组-34">
                                <circle id="椭圆形" stroke="#DD9F69" stroke-width="0.52" fill="url(#linearGradient-3)" cx="9.22697368" cy="15.0269737" r="9.48697368"></circle>
                                <circle id="椭圆形" fill="#FF6161" filter="url(#filter-4)" cx="15.9423741" cy="17.4711648" r="1.48378776"></circle>
                                <circle id="椭圆形" fill="#FF6161" filter="url(#filter-5)" cx="5.09775391" cy="17.4711648" r="1.48378776"></circle>
                                <path d="M7.38663683,13.8802289 C8.06273601,14.0628115 8.75531299,14.6274816 8.65064845,15.6039897 C8.62925555,15.803583 8.4777151,15.9832263 8.25599387,15.9530418 C8.03427265,15.9228572 7.99281214,15.7978203 7.86878786,15.5903423 C7.5960476,15.1340799 7.07461077,15.0095482 6.87811743,14.9843452 C6.68162408,14.9591422 6.1174162,14.9412242 5.63557385,15.2420458 C5.51776132,15.3155979 5.30814923,15.2420458 5.40091613,14.8772374 C5.50543246,14.466224 6.31399912,13.5905598 7.38663683,13.8802289 Z" id="路径" fill="#262626" transform="translate(7.019538, 14.889486) rotate(-5.000000) translate(-7.019538, -14.889486) "></path>
                                <path d="M14.329112,13.8802289 C15.0052112,14.0628115 15.6977882,14.6274816 15.5931237,15.6039897 C15.5717308,15.803583 15.4201903,15.9832263 15.1984691,15.9530418 C14.9767478,15.9228572 14.9352873,15.7978203 14.8112631,15.5903423 C14.5385228,15.1340799 14.017086,15.0095482 13.8205926,14.9843452 C13.6240993,14.9591422 13.0598914,14.9412242 12.578049,15.2420458 C12.4602365,15.3155979 12.2506244,15.2420458 12.3433913,14.8772374 C12.4479077,14.466224 13.2564743,13.5905598 14.329112,13.8802289 Z" id="路径" fill="#262626" transform="translate(13.962013, 14.889486) scale(-1, 1) rotate(-5.000000) translate(-13.962013, -14.889486) "></path>
                                <path d="M7.45181522,13.6388748 C8.37369494,13.8878312 9.0066719,14.6281626 8.8992247,15.6306327 C8.86195622,15.9783433 8.5816382,16.2496802 8.22227059,16.2007568 C8.00522094,16.1712082 7.87231325,16.0745841 7.75833443,15.8951035 C7.73555106,15.8592268 7.66083108,15.7297008 7.65420386,15.7186143 C7.48182008,15.4302365 7.1537714,15.2717497 6.84631201,15.2323138 C6.52418765,15.1909968 6.09903545,15.2474208 5.76796915,15.4541106 C5.39544888,15.6866807 5.02905726,15.3251624 5.15862701,14.8156258 C5.34709873,14.0744555 6.41488385,13.3588484 7.45181522,13.6388748 Z" id="路径" stroke="url(#linearGradient-6)" stroke-width="0.5" transform="translate(7.019538, 14.889486) rotate(-5.000000) translate(-7.019538, -14.889486) "></path>
                                <path d="M14.3942904,13.6388748 C15.3161701,13.8878312 15.9491471,14.6281626 15.8416999,15.6306327 C15.8044314,15.9783433 15.5241134,16.2496802 15.1647458,16.2007568 C14.9476961,16.1712082 14.8147884,16.0745841 14.7008096,15.8951035 C14.6780263,15.8592268 14.6033063,15.7297008 14.5966791,15.7186143 C14.4242953,15.4302365 14.0962466,15.2717497 13.7887872,15.2323138 C13.4666629,15.1909968 13.0415107,15.2474208 12.7104444,15.4541106 C12.3379241,15.6866807 11.9715325,15.3251624 12.1011022,14.8156258 C12.2895739,14.0744555 13.357359,13.3588484 14.3942904,13.6388748 Z" id="路径" stroke="url(#linearGradient-6)" stroke-width="0.5" transform="translate(13.962013, 14.889486) scale(-1, 1) rotate(-5.000000) translate(-13.962013, -14.889486) "></path>
                                <g id="编组-62" transform="translate(6.187294, 9.676742)" fill="#262626" fill-rule="nonzero">
                                    <path d="M2.45134119,0.582857143 C2.65517786,0.582857143 2.81029892,0.690699111 2.81029892,0.894535785 C2.81029892,1.09837246 2.63493549,1.20621482 2.43109882,1.20621482 C1.81762205,1.20621482 1.17554693,1.61031767 0.876402778,2.13345079 C0.82812819,2.23174445 0.671697418,2.26631263 0.602397213,2.23014874 C0.468795592,2.18318222 0.567616377,1.85371117 0.6374151,1.6961787 C1.05027636,0.936559856 1.57412283,0.582857143 2.45134119,0.582857143 Z" id="路径-13" transform="translate(1.673287, 1.413496) scale(-1, 1) rotate(20.000000) translate(-1.673287, -1.413496) "></path>
                                    <path d="M8.16425744,0.582857143 C8.36809412,0.582857143 8.52321517,0.690699111 8.52321517,0.894535785 C8.52321517,1.09837246 8.34785174,1.20621482 8.14401507,1.20621482 C7.53053831,1.20621482 6.88846318,1.61031767 6.58931903,2.13345079 C6.54104444,2.23174445 6.38461367,2.26631263 6.31531346,2.23014874 C6.18171184,2.18318222 6.28053263,1.85371117 6.35033135,1.6961787 C6.76319261,0.936559856 7.28703908,0.582857143 8.16425744,0.582857143 Z" id="路径-13" transform="translate(7.386203, 1.413496) rotate(20.000000) translate(-7.386203, -1.413496) "></path>
                                </g>
                                <path d="M16.2381878,9.02838545 C17.6195581,10.6414273 18.4539474,12.7367595 18.4539474,15.0269737 C18.4539474,20.1228905 14.3228905,24.2539474 9.22697368,24.2539474 C5.84564544,24.2539474 2.88912679,22.4351213 1.28239892,19.7224504 C2.97443172,21.6983839 5.487132,22.9500752 8.29218045,22.9500752 C13.3880973,22.9500752 17.5191541,18.8190184 17.5191541,13.7231015 C17.5191541,12.0244626 17.0601478,10.4330303 16.2594017,9.06607121 Z" id="形状结合" fill="url(#linearGradient-7)"></path>
                                <g id="路径-126" transform="translate(0.000000, 5.800000)">
                                    <mask id="mask-9" fill="white">
                                        <use xlink:href="#path-8"></use>
                                    </mask>
                                    <g id="蒙版"></g>
                                    <path d="M16.0974211,13.1549526 C13.5881387,13.3611548 12.3334976,15.0040303 12.3334976,18.0835791 C12.3334976,21.1631279 14.6212834,23.1630412 19.196855,24.0833189 L16.0974211,13.1549526 Z" fill="#F1A520" opacity="0.65062314" mask="url(#mask-9)"></path>
                                    <path d="M5.33742095,13.1549526 C2.8281386,13.3611548 1.57349743,15.0040303 1.57349743,18.0835791 C1.57349743,21.1631279 3.86128323,23.1630412 8.43685484,24.0833189 L5.33742095,13.1549526 Z" fill="#F1A520" opacity="0.65062314" mask="url(#mask-9)" transform="translate(5.005176, 18.619136) scale(-1, 1) translate(-5.005176, -18.619136) "></path>
                                </g>
                                <path d="M9.16725263,18.4962133 C9.19937196,18.5329426 9.30582139,18.6677484 9.31865421,18.6832731 C9.53406045,18.9438636 9.63015805,18.9577892 9.92869364,18.6138823 C10.451454,18.0116732 11.0448582,18.0641578 11.4891344,18.6982613 C11.78068,18.9599265 11.9239643,18.928266 12.1093511,18.5506185 C12.3789977,18.001327 12.8916081,17.9917296 12.972057,18.5379963 C13.0271202,18.9118884 12.8461871,19.3666388 12.4750113,19.6207897 C11.953295,19.9780185 11.3867114,19.9780185 10.7876055,19.5992862 C10.6514706,19.4752157 10.5646101,19.4752157 10.4267421,19.5999188 C9.83925104,20.131311 9.00909706,20.0730969 8.51301338,19.1832411 C8.21566784,18.6498741 8.15578853,18.2907346 8.5356195,18.2006236 C8.74227879,18.1515957 8.99602966,18.3004155 9.16725263,18.4962133 Z" id="路径-125" stroke="url(#linearGradient-10)" stroke-width="0.5" fill="#924400"></path>
                                <g id="编组-63" transform="translate(13.531141, 19.083579)">
                                    <g id="椭圆形">
                                        <use fill="url(#linearGradient-3)" fill-rule="evenodd" xlink:href="#path-11"></use>
                                        <use fill="black" fill-opacity="1" filter="url(#filter-12)" xlink:href="#path-11"></use>
                                        <circle stroke="#DD9F69" stroke-width="0.52" cx="3" cy="3" r="3.26"></circle>
                                    </g>
                                    <path d="M0.3,2.1 C0.3,3.75685425 1.64314575,5.1 3.3,5.1 C4.45689969,5.1 5.46084952,4.44514381 5.96139302,3.48588789 C5.72881128,4.91154397 4.4915169,6 3,6 C1.34314575,6 0,4.65685425 0,3 C0,2.50026876 0.122187709,2.029076 0.338317159,1.61466767 C0.313318825,1.77313224 0.3,1.93501073 0.3,2.1 Z" id="形状结合" fill="#F7B94D"></path>
                                </g>
                                <g id="编组-63备份-2" transform="translate(1.331141, 19.083579)">
                                    <g id="椭圆形">
                                        <use fill="url(#linearGradient-3)" fill-rule="evenodd" xlink:href="#path-13"></use>
                                        <use fill="black" fill-opacity="1" filter="url(#filter-14)" xlink:href="#path-13"></use>
                                        <circle stroke="#DD9F69" stroke-width="0.52" cx="3" cy="3" r="3.26"></circle>
                                    </g>
                                    <path d="M0.3,2.1 C0.3,3.75685425 1.64314575,5.1 3.3,5.1 C4.45689969,5.1 5.46084952,4.44514381 5.96139302,3.48588789 C5.72881128,4.91154397 4.4915169,6 3,6 C1.34314575,6 0,4.65685425 0,3 C0,2.50026876 0.122187709,2.029076 0.338317159,1.61466767 C0.313318825,1.77313224 0.3,1.93501073 0.3,2.1 Z" id="形状结合" fill="#F7B94D"></path>
                                </g>
                                <path d="M10.6470517,9.27900397 C8.12094716,8.39493984 6.94799441,7.04539922 7.21989729,5.24682654 C7.51493192,3.29524288 10.4947605,3.29524288 16.1357914,5.05341143 C16.8407617,5.4079521 17.2757916,5.4079521 17.5058291,5.12253459 C18.1770538,4.28971711 19.8112404,4.98143489 20.523934,6.37340962 C21.1352539,7.56738962 21.0248249,8.84582505 20.5080499,9.61192506 C20.6822123,9.35373572 20.0673636,10.4372385 19.728297,10.8082298 C18.9447705,11.6655291 17.7415936,12.1599619 15.9423741,12.1599619 C15.390031,12.1599619 14.8308024,12.0973171 13.9358525,11.9558764 C13.7942234,11.9333787 13.7942234,11.9333787 13.653098,11.9107111 C13.4902458,11.8845258 13.4902458,11.8845258 13.3284757,11.8587706 C13.2369578,11.8443534 13.2369578,11.8443534 13.1452985,11.8300186 C11.9547161,11.6435652 11.4698781,11.4929683 11.0817477,11.0438915 C10.7856562,10.701306 10.6484748,10.115505 10.6470517,9.27900397 Z" id="路径-127" stroke="#DD9F69" stroke-width="0.52" fill="url(#radialGradient-15)"></path>
                                <path d="M16.0189744,5.28569096 C16.8203448,5.68871278 17.3834414,5.68871278 17.7082643,5.28569096 C18.1954986,4.68115823 19.6156496,5.16992417 20.2925045,6.4919019 C20.9693595,7.81387963 20.6103669,8.99530901 20.2925045,9.46652832 C20.1178677,9.72542093 19.8757964,10.4343724 19.1141548,11.020702 C19.4282594,10.6153759 19.5755137,10.2399635 19.6925047,10.0665286 C20.0103671,9.59530931 20.3693597,8.41387993 19.6925047,7.0919022 C19.0156498,5.76992447 17.5954988,5.28115852 17.1082645,5.88569125 C16.7834416,6.28871308 16.220345,6.28871308 15.4189746,5.88569125 C11.3764316,4.62836369 8.76558152,4.30555851 7.58642424,4.9172757 C8.19792425,3.60457469 11.0089713,3.72746015 16.0189744,5.28569096 Z" id="形状结合" fill="url(#linearGradient-16)" opacity="0.499976749"></path>
                                <path d="M7.4920243,5.22755491 C7.54353479,5.83356988 7.72728556,6.37121864 8.04327661,6.84050118 L8.00899536,6.81319882 C8.92907368,7.56067146 9.83949192,7.99951948 10.7402501,8.12974287 C11.1296842,8.1860437 11.68279,8.39077783 12.2560823,8.55367437 C12.5759786,8.6445704 13.0994361,8.77811206 13.8264548,8.95429934 C14.2219092,9.35017249 14.0393178,9.44914078 13.2786807,9.25120421 C12.4273794,9.02967457 11.5436482,8.71736395 10.9075412,8.76413114 C10.8990637,9.59547769 11.0227312,10.1579944 11.2784583,10.4538773 C11.6850104,10.9242684 12.3550104,10.9568804 13.1534974,11.0949416 C14.0501268,11.2499719 15.0996622,11.479962 15.9423739,11.479962 C19.4333762,11.479962 19.9746419,9.51774767 20.2925043,9.04652837 C20.457333,8.80217597 20.6332214,8.36684972 20.6699982,7.81998201 C20.7200634,8.56209672 20.4977128,9.16231468 20.2925045,9.46652832 C19.9746421,9.93774762 19.4333765,11.8999619 15.9423741,11.8999619 C15.1390892,11.8999619 14.233733,11.7368959 13.3691327,11.6019691 C12.5189413,11.469291 11.7063692,11.3689809 11.2784586,10.8738772 C11.0133175,10.5671022 10.8901379,9.97370125 10.9089198,9.09367432 C10.7216274,9.04727359 10.5419019,8.99758237 10.3697432,8.94460066 L10.3552703,8.95429934 L10.3552703,8.95429934 C10.1474078,9.11822818 9.82715952,8.99056262 9.3945254,8.57130268 C7.91115573,7.86847492 7.26915138,6.80075198 7.46701383,5.3678066 L7.48686156,5.25206696 L7.48686156,5.25206696 Z" id="形状结合" fill="url(#linearGradient-17)"></path>
                                <path d="M9.72734052,8.71970752 C10.4031173,8.85018362 10.9492789,8.80725622 11.3658254,8.59092531 C11.7823719,8.3745944 12.5507794,8.51913222 13.6710481,9.02453878 C12.3046324,8.81440084 11.5362248,8.76186636 11.3658254,8.86693533 C11.1954259,8.97200429 10.9819306,9.13308335 10.7253395,9.35017249 L9.72734052,8.71970752 Z" id="路径-130" fill="#DD9F69"></path>
                                <path d="M10.6570435,9.27190464 C8.13038251,8.38932285 6.95849431,7.04284407 7.22978494,5.24832132 C7.52330811,3.30673562 10.4980407,3.30673562 16.1312984,5.06234526 C16.8399764,5.41875059 17.279932,5.41875059 17.5136151,5.12880984 C18.1790616,4.30316148 19.80513,4.99144297 20.5150328,6.37796702 C21.1246454,7.56861236 21.0145511,8.84317351 20.4997597,9.60633288 C20.6733674,9.34896581 20.0590805,10.4314786 19.7209155,10.8014834 C18.9393487,11.6566385 17.7388714,12.1499619 15.9423741,12.1499619 C15.3906977,12.1499619 14.8318765,12.0873628 13.9374135,11.945999 C13.7958043,11.9235044 13.7958043,11.9235044 13.6546846,11.9008377 C13.4918304,11.8746521 13.4918304,11.8746521 13.3300394,11.8488936 C13.2385036,11.8344736 13.2385036,11.8344736 13.1468457,11.8201391 C11.9588175,11.6340856 11.4752411,11.4838806 11.0893135,11.0373525 C10.7943149,10.6960315 10.6577063,10.1099675 10.6570435,9.27190464 Z" id="路径-127" stroke="#DD9F69" stroke-width="0.5"></path>
                            </g>
                        </g>
                    </g>
                </g>
            </g>
        </g>
    </g>
</svg>