<?xml version="1.0" encoding="UTF-8"?>
<svg width="24px" height="24px" viewBox="0 0 24 24" version="1.1" xmlns="http://www.w3.org/2000/svg" xmlns:xlink="http://www.w3.org/1999/xlink">
    <!-- Generator: Sketch 60.1 (88133) - https://sketch.com -->
    <title>反对</title>
    <desc>Created with Sketch.</desc>
    <defs>
        <rect id="path-1" x="0" y="0" width="24" height="24"></rect>
        <linearGradient x1="50%" y1="0%" x2="50%" y2="99.6120144%" id="linearGradient-3">
            <stop stop-color="#F8DFBB" offset="0%"></stop>
            <stop stop-color="#F8DAB8" offset="100%"></stop>
        </linearGradient>
        <path d="M13.555295,6.86678136 C14.1890946,5.31541707 14.8420145,4.92267064 14.7180622,3.14087912 C14.5684063,0.989601392 12.3951373,0.402773089 12.0697707,0.402773089 C10.738122,0.402773089 10.5669837,1.87032989 10.6132326,2.07527967 C11.2472832,4.8850407 10.1903822,5.32974575 9.5094425,6.31068916 C8.82850279,7.29163258 6.34830513,8.86695149 5.90775733,9.17086623 C5.46720952,9.47478097 3.81410986,9.7678316 3.01287866,9.81670188 C3.01287866,11.6660582 3.13881164,14.3023473 3.3906776,17.725569 C5.90775733,17.3702884 7.96574892,18.8773722 9.39001701,19.0906796 C10.8142851,19.3039871 14.0171975,19.6573336 15.4548762,19.5577089 C16.8925548,19.4580841 17.6983359,18.0695763 17.5023406,17.3702884 C18.9484099,16.8627265 18.6926379,15.1164442 18.0874734,14.4667186 C19.3793799,13.696514 18.8331066,11.9708244 18.4413604,11.6250417 C19.1900147,11.0320396 19.2483864,10.0898326 19.2483864,9.69373443 C19.2483864,8.43984476 17.5617201,8.11421825 17.213052,8.17872137 C15.6259002,8.47234228 15.4861929,8.60208933 14.2319323,8.49145551 C13.9020561,8.46235832 13.298491,7.38162728 13.555295,6.86678136 Z" id="path-4"></path>
        <filter x="-3.1%" y="-2.6%" width="106.2%" height="105.2%" filterUnits="objectBoundingBox" id="filter-5">
            <feGaussianBlur stdDeviation="0.5" in="SourceAlpha" result="shadowBlurInner1"></feGaussianBlur>
            <feOffset dx="0" dy="0" in="shadowBlurInner1" result="shadowOffsetInner1"></feOffset>
            <feComposite in="shadowOffsetInner1" in2="SourceAlpha" operator="arithmetic" k2="-1" k3="1" result="shadowInnerInner1"></feComposite>
            <feColorMatrix values="0 0 0 0 0.9375   0 0 0 0 0.708161045   0 0 0 0 0.48879335  0 0 0 1 0" type="matrix" in="shadowInnerInner1"></feColorMatrix>
        </filter>
        <radialGradient cx="50%" cy="57.6849584%" fx="50%" fy="57.6849584%" r="51.5920397%" gradientTransform="translate(0.500000,0.576850),scale(1.000000,0.846823),rotate(96.753332),scale(1.000000,1.599431),translate(-0.500000,-0.576850)" id="radialGradient-6">
            <stop stop-color="#F7D7B6" stop-opacity="0" offset="0%"></stop>
            <stop stop-color="#FFDDB4" stop-opacity="0.467903191" offset="56.9327967%"></stop>
            <stop stop-color="#DAA068" offset="100%"></stop>
            <stop stop-color="#C79362" offset="100%"></stop>
            <stop stop-color="#E3AD7A" offset="100%"></stop>
        </radialGradient>
        <linearGradient x1="50%" y1="0%" x2="51.1473972%" y2="65.0505426%" id="linearGradient-7">
            <stop stop-color="#F8DFBB" offset="0%"></stop>
            <stop stop-color="#F8DFBB" stop-opacity="0.91513792" offset="74.6126827%"></stop>
            <stop stop-color="#F8DAB8" stop-opacity="0" offset="100%"></stop>
        </linearGradient>
        <path d="M13.5424164,6.46400827 C14.176216,4.91264398 14.8291359,4.51989756 14.7051836,2.73810603 C14.5555276,0.586828303 12.3822586,2.27373675e-13 12.056892,2.27373675e-13 C10.7252433,2.27373675e-13 10.5979004,1.46041492 10.600354,1.67250658 C10.628016,4.06369155 10.1495718,4.84911142 9.46863204,5.83005484 C8.78769233,6.81099826 6.33542647,8.4641784 5.89487867,8.76809314 C5.45433087,9.07200788 3.8012312,9.36505851 3,9.41392879 C3,11.2632851 3.12593298,13.8995742 3.37779894,17.3227959 C5.89487867,16.9675153 7.95287027,18.4745991 9.37713836,18.6879066 C10.8014064,18.901214 14.0043188,19.2545605 15.4419975,19.1549358 C16.8796762,19.055311 17.6854572,17.6668033 17.4894619,16.9675153 C18.4284817,17.0007805 18.7537954,15.0637111 18.3999089,14.2469325 C19.6918155,13.476728 19.3518777,11.0307696 18.4284817,11.2222686 C19.1771361,10.6292665 19.2355078,9.29096134 19.2355078,9.29096134 C19.2355284,8.03707167 17.5488415,7.71144516 17.2001733,7.77594828 C15.6130215,8.06956919 15.5434139,8.24789191 14.2891533,8.13725809 C13.9592771,8.1081609 13.2856124,6.97885419 13.5424164,6.46400827 Z" id="path-8"></path>
        <filter x="-3.1%" y="-2.6%" width="106.2%" height="105.2%" filterUnits="objectBoundingBox" id="filter-9">
            <feGaussianBlur stdDeviation="0.5" in="SourceAlpha" result="shadowBlurInner1"></feGaussianBlur>
            <feOffset dx="0" dy="0" in="shadowBlurInner1" result="shadowOffsetInner1"></feOffset>
            <feComposite in="shadowOffsetInner1" in2="SourceAlpha" operator="arithmetic" k2="-1" k3="1" result="shadowInnerInner1"></feComposite>
            <feColorMatrix values="0 0 0 0 0.9375   0 0 0 0 0.708161045   0 0 0 0 0.48879335  0 0 0 1 0" type="matrix" in="shadowInnerInner1"></feColorMatrix>
        </filter>
        <path d="M10.518188,7.07822173 C11.1519875,5.52685744 11.8291359,4.51989756 11.7051836,2.73810603 C11.5555276,0.586828303 9.38225863,0 9.05689204,0 C7.72524332,0 7.59790041,1.46041492 7.60035396,1.67250658 C7.62801605,4.06369155 7.14828026,5.16486198 6.46863204,5.83005484 C5.78898383,6.4952477 3.33542647,8.4641784 2.89487867,8.76809314 C2.45433087,9.07200788 0.801231204,9.36505851 0,9.41392879 C0,11.2632851 0.12593298,13.8995742 0.377798941,17.3227959 C2.89487867,16.9675153 4.95287027,18.4745991 6.37713836,18.6879066 C7.80140645,18.901214 11.0043188,19.2545605 12.4419975,19.1549358 C13.8796762,19.055311 14.6854572,17.6668033 14.4894619,16.9675153 C15.7613929,17.1525058 15.8541783,14.5315869 15.2037624,14.2469325 C16.4956689,13.476728 16.2402951,11.2854366 15.4284817,11.2222686 C16.1771361,10.6292665 16.3139449,9.31164694 16.3139449,9.31164694 C16.3139449,8.05775727 14.6403528,7.57727197 14.287937,7.59944786 C12.5297612,7.71008167 12.6790716,8.24789191 11.424811,8.13725809 C11.0949348,8.1081609 10.261384,7.59306765 10.518188,7.07822173 Z" id="path-10"></path>
        <linearGradient x1="50%" y1="63.0638661%" x2="15.5805796%" y2="50%" id="linearGradient-12">
            <stop stop-color="#ECBF8E" offset="0%"></stop>
            <stop stop-color="#F4CEA4" offset="100%"></stop>
        </linearGradient>
        <linearGradient x1="75.3575465%" y1="50%" x2="50%" y2="58.9197385%" id="linearGradient-13">
            <stop stop-color="#EDCCA4" offset="0%"></stop>
            <stop stop-color="#F7D4AB" offset="100%"></stop>
        </linearGradient>
        <linearGradient x1="73.8532985%" y1="50%" x2="50%" y2="58.9197385%" id="linearGradient-14">
            <stop stop-color="#EDCCA4" offset="0%"></stop>
            <stop stop-color="#F7D4AB" offset="100%"></stop>
        </linearGradient>
        <radialGradient cx="69.7908854%" cy="33.9541747%" fx="69.7908854%" fy="33.9541747%" r="93.5307172%" gradientTransform="translate(0.697909,0.339542),scale(1.000000,0.804823),rotate(125.020055),translate(-0.697909,-0.339542)" id="radialGradient-15">
            <stop stop-color="#E6B582" offset="0%"></stop>
            <stop stop-color="#EBB98D" stop-opacity="0.40739729" offset="65.9770091%"></stop>
            <stop stop-color="#DFA978" stop-opacity="0.921120301" offset="92.5802392%"></stop>
            <stop stop-color="#DDA775" stop-opacity="0" offset="100%"></stop>
        </radialGradient>
        <radialGradient cx="22.4595541%" cy="46.1196849%" fx="22.4595541%" fy="46.1196849%" r="98.7816007%" gradientTransform="translate(0.224596,0.461197),scale(0.786494,1.000000),rotate(5.169196),scale(1.000000,0.796715),translate(-0.224596,-0.461197)" id="radialGradient-16">
            <stop stop-color="#E6B582" offset="0%"></stop>
            <stop stop-color="#EBB98D" stop-opacity="0.40739729" offset="78.0605719%"></stop>
            <stop stop-color="#DDA775" offset="100%"></stop>
        </radialGradient>
        <radialGradient cx="33.9290762%" cy="37.0184337%" fx="33.9290762%" fy="37.0184337%" r="119.615334%" gradientTransform="translate(0.339291,0.370184),scale(0.502934,1.000000),rotate(6.230446),scale(1.000000,0.811829),translate(-0.339291,-0.370184)" id="radialGradient-17">
            <stop stop-color="#E6B582" offset="0%"></stop>
            <stop stop-color="#EBB98D" stop-opacity="0.40739729" offset="78.0605719%"></stop>
            <stop stop-color="#DDA775" offset="100%"></stop>
        </radialGradient>
        <radialGradient cx="19.6055153%" cy="7.76981089%" fx="19.6055153%" fy="7.76981089%" r="176.903824%" gradientTransform="translate(0.196055,0.077698),scale(0.429041,1.000000),rotate(5.801921),scale(1.000000,0.337004),translate(-0.196055,-0.077698)" id="radialGradient-18">
            <stop stop-color="#E6B582" offset="0%"></stop>
            <stop stop-color="#EBB98D" stop-opacity="0.40739729" offset="78.0605719%"></stop>
            <stop stop-color="#C7976A" offset="100%"></stop>
        </radialGradient>
        <radialGradient cx="50%" cy="0%" fx="50%" fy="0%" r="58.4639528%" gradientTransform="translate(0.500000,0.000000),scale(0.334599,1.000000),rotate(99.905334),scale(1.000000,3.561833),translate(-0.500000,-0.000000)" id="radialGradient-19">
            <stop stop-color="#F2D7B5" offset="0%"></stop>
            <stop stop-color="#E4B88C" stop-opacity="0.109318746" offset="59.3097547%"></stop>
            <stop stop-color="#BB804B" offset="100%"></stop>
        </radialGradient>
        <radialGradient cx="35.6281761%" cy="35.1929026%" fx="35.6281761%" fy="35.1929026%" r="78.4283541%" gradientTransform="translate(0.356282,0.351929),scale(0.850062,1.000000),rotate(21.456094),scale(1.000000,0.896251),translate(-0.356282,-0.351929)" id="radialGradient-20">
            <stop stop-color="#E6B582" offset="0%"></stop>
            <stop stop-color="#EBB98D" stop-opacity="0.40739729" offset="68.6816345%"></stop>
            <stop stop-color="#DDA775" offset="100%"></stop>
        </radialGradient>
        <radialGradient cx="20.2182009%" cy="54.1100458%" fx="20.2182009%" fy="54.1100458%" r="85.2891669%" gradientTransform="translate(0.202182,0.541100),scale(1.000000,0.665197),rotate(-20.702742),scale(1.000000,0.796715),translate(-0.202182,-0.541100)" id="radialGradient-21">
            <stop stop-color="#E6B582" offset="0%"></stop>
            <stop stop-color="#EBB98D" stop-opacity="0.931189904" offset="80.0279772%"></stop>
            <stop stop-color="#DDA775" offset="100%"></stop>
        </radialGradient>
        <linearGradient x1="50%" y1="0.253378378%" x2="50%" y2="100%" id="linearGradient-22">
            <stop stop-color="#E8AE7B" offset="0%"></stop>
            <stop stop-color="#C88850" offset="100%"></stop>
        </linearGradient>
        <path d="M14.0107368,6.85168333 C14.6445364,5.30031904 15.358683,4.92267064 15.2347308,3.14087912 C15.0850748,0.989601392 12.9118058,0.402773089 12.5864392,0.402773089 C11.2547905,0.402773089 11.0724402,1.87433022 11.1299011,2.07527967 C11.8920426,4.73196933 10.5449427,5.9190256 9.90668553,6.55241032 C9.26842832,7.18579505 6.86497365,8.86695149 6.42442585,9.17086623 C5.98387804,9.47478097 4.33077838,9.7678316 3.52954718,9.81670188 C3.52954718,11.6660582 3.65548016,14.3023473 3.90734612,17.725569 C6.42442585,17.3702884 8.48241744,18.8773722 9.90668553,19.0906796 C11.3309536,19.3039871 14.533866,19.6573336 15.9715447,19.5577089 C17.4092233,19.4580841 18.2150044,18.0695763 18.0190091,17.3702884 C18.9294561,17.1876319 19.2093064,15.1872333 18.6041419,14.6497056 C19.8960485,13.8795011 19.6136149,11.6882097 18.9580289,11.6250417 C19.7066832,11.0320396 19.6735544,10.1258973 19.6735616,9.69373443 C19.6735822,8.43984476 17.9875243,8.18590432 17.6388561,8.25040745 C16.0517043,8.54402836 15.5970882,8.69324477 14.4515754,8.54003118 C13.9137807,8.47389745 13.5912981,7.6120025 14.0107368,6.85168333 Z" id="path-23"></path>
        <filter x="-6.3%" y="-5.3%" width="112.7%" height="110.7%" filterUnits="objectBoundingBox" id="filter-24">
            <feGaussianBlur stdDeviation="0.5" in="SourceAlpha" result="shadowBlurInner1"></feGaussianBlur>
            <feOffset dx="0" dy="0" in="shadowBlurInner1" result="shadowOffsetInner1"></feOffset>
            <feComposite in="shadowOffsetInner1" in2="SourceAlpha" operator="arithmetic" k2="-1" k3="1" result="shadowInnerInner1"></feComposite>
            <feColorMatrix values="0 0 0 0 0.9375   0 0 0 0 0.708161045   0 0 0 0 0.48879335  0 0 0 1 0" type="matrix" in="shadowInnerInner1"></feColorMatrix>
        </filter>
        <linearGradient x1="50%" y1="0%" x2="50%" y2="100%" id="linearGradient-25">
            <stop stop-color="#4BDD9E" offset="0%"></stop>
            <stop stop-color="#2CBE6F" offset="37.9290871%"></stop>
            <stop stop-color="#2ABD6C" offset="75.0236553%"></stop>
            <stop stop-color="#23B060" offset="100%"></stop>
        </linearGradient>
        <linearGradient x1="50%" y1="0%" x2="50%" y2="100%" id="linearGradient-26">
            <stop stop-color="#25B864" offset="0%"></stop>
            <stop stop-color="#16A051" offset="100%"></stop>
        </linearGradient>
        <rect id="path-27" x="0" y="8.52651283e-14" width="4.65001668" height="10.3333704" rx="0.64583565"></rect>
        <linearGradient x1="50%" y1="0%" x2="50%" y2="84.9436958%" id="linearGradient-29">
            <stop stop-color="#25A65F" stop-opacity="0.138876748" offset="0%"></stop>
            <stop stop-color="#21AB5F" offset="100%"></stop>
        </linearGradient>
    </defs>
    <g id="反对" stroke="none" stroke-width="1" fill="none" fill-rule="evenodd">
        <g id="编组-13" transform="translate(12.000000, 12.000000) scale(-1, -1) translate(-12.000000, -12.000000) ">
            <g id="编组-4">
                <mask id="mask-2" fill="white">
                    <use xlink:href="#path-1"></use>
                </mask>
                <g id="蒙版"></g>
                <g mask="url(#mask-2)">
                    <g transform="translate(2.256522, 1.456522)">
                        <g id="点赞" stroke="none" stroke-width="1" fill-rule="evenodd" transform="translate(0.516669, 0.000000)">
                            <rect id="矩形" fill="#000000" fill-rule="nonzero" opacity="0" x="-4.54747351e-13" y="0" width="20.6667408" height="20.6667408"></rect>
                            <g id="形状">
                                <use fill="url(#linearGradient-3)" fill-rule="evenodd" xlink:href="#path-4"></use>
                                <use fill="black" fill-opacity="1" filter="url(#filter-5)" xlink:href="#path-4"></use>
                            </g>
                            <path d="M13.4654178,7.05025532 C14.0992174,5.49889103 14.8420145,4.92267064 14.7180622,3.14087912 C14.5684063,0.989601392 12.3951373,0.402773089 12.0697707,0.402773089 C10.738122,0.402773089 10.6107791,1.86318801 10.6132326,2.07527967 C10.6408947,4.46646464 10.1624504,5.25188451 9.4815107,6.23282793 C8.80057099,7.21377135 6.34830513,8.86695149 5.90775733,9.17086623 C5.46720952,9.47478097 3.81410986,9.7678316 3.01287866,9.81670188 C3.01287866,11.6660582 3.13881164,14.3023473 3.3906776,17.725569 C5.90775733,17.3702884 7.96574892,18.8773722 9.39001701,19.0906796 C10.8142851,19.3039871 14.0171975,19.6573336 15.4548762,19.5577089 C16.8925548,19.4580841 17.6983359,18.0695763 17.5023406,17.3702884 C18.9025094,17.0282354 18.6926379,14.7604845 18.0874734,14.6497056 C19.3793799,13.8795011 18.8331066,11.9708244 18.4413604,11.6250417 C19.1900147,11.0320396 19.2483864,9.69373443 19.2483864,9.69373443 C19.2483864,8.43984476 17.5617201,8.11421825 17.213052,8.17872137 C15.6259002,8.47234228 15.4861929,8.60208933 14.2319323,8.49145551 C13.9020561,8.46235832 13.2086139,7.56510124 13.4654178,7.05025532 Z" id="形状" fill="url(#radialGradient-6)"></path>
                            <g id="形状">
                                <use fill="url(#linearGradient-7)" fill-rule="evenodd" xlink:href="#path-8"></use>
                                <use fill="black" fill-opacity="1" filter="url(#filter-9)" xlink:href="#path-8"></use>
                            </g>
                        </g>
                        <g id="路径-17-+-路径-35-蒙版" stroke="none" stroke-width="1" fill-rule="evenodd" transform="translate(3.529547, 0.402773)">
                            <mask id="mask-11" fill="white">
                                <use xlink:href="#path-10"></use>
                            </mask>
                            <g id="路径"></g>
                            <path d="M11.9928265,14.1141289 C13.4837043,14.2241966 14.1407995,14.6021548 13.9641122,15.2480035 C13.7874248,15.8938523 13.4083954,16.4061374 12.8270239,16.7848591 L14.5522891,17.0007807 L16.5670325,16.0902152 L15.6797592,14.4133189 L11.9928265,14.1141289 Z" id="路径-39" fill="url(#linearGradient-12)" mask="url(#mask-11)"></path>
                            <path d="M13.3967288,8.28909862 C14.1671023,8.45366501 14.5522891,8.76838977 14.5522891,9.23327289 C14.5522891,9.93059757 14.7375394,11.028616 13.2127343,11.1570264 C14.3542165,11.1611965 15.1665057,11.0601512 15.6496019,10.8538908 C15.7309514,9.14402934 15.6477204,8.28909862 15.3999089,8.28909862 C15.1520974,8.28909862 14.4843707,8.28909862 13.3967288,8.28909862 Z" id="路径-3" fill="url(#linearGradient-13)" mask="url(#mask-11)"></path>
                            <path d="M13.9641122,11.2854368 C14.3562301,11.5161537 14.5522891,11.8099234 14.5522891,12.1667459 C14.5522891,12.7019796 14.7375394,13.7024493 13.2127343,14.1045498 C14.7208128,14.1884733 15.5431545,13.7209498 15.6797592,12.7019796 L15.3999089,11.1570264 L13.9641122,11.2854368 Z" id="路径-15" fill="url(#linearGradient-14)" mask="url(#mask-11)"></path>
                            <path d="M7.75678052,-0.274479896 C10.6769767,-0.00780671187 11.5590408,1.69741135 10.4029726,4.84117429 C9.8260747,6.23592662 9.46168614,7.03069686 9.77523854,7.71033297 C9.94532711,8.07900607 10.1998174,8.55036309 11.1106526,8.46374546 C11.6007527,8.41713845 13.0526308,8.52561415 14.3344502,8.46374546 C16.1491034,8.2223047 16.427682,10.2290306 16.5518699,9.68705976 C16.7207413,8.95008456 15.4790279,6.32189015 12.8267297,1.80247653 C12.2023575,0.326235271 11.6303318,-0.579568184 11.1106526,-0.914933837 C10.5909734,-1.25029949 9.87555356,-1.25029949 8.96439315,-0.914933837 L7.75678052,-0.274479896 Z" id="路径-38" fill="url(#radialGradient-15)" opacity="0.53562128" mask="url(#mask-11)"></path>
                            <path d="M14.1594399,7.7050275 C14.9525972,8.24550779 15.3491758,8.65387219 15.3491758,8.93012071 C15.3491758,9.60823475 15.3999089,10.2347821 14.992166,10.6066839 C14.584423,10.9785857 12.714192,11.0828702 11.6879293,11.1459661 C12.6002424,11.3015213 13.8901489,11.3269555 15.5576488,11.2222689 C15.9643424,10.7252957 16.1902953,10.3575282 16.2355078,10.1189663 C16.2632435,9.97261957 16.1766411,8.8335483 15.8126093,8.36214386 C15.6596882,8.16411811 15.1086317,7.94507932 14.1594399,7.7050275 Z" id="路径-17" fill="url(#radialGradient-16)" mask="url(#mask-11)"></path>
                            <path d="M14.7273254,11.2222689 C15.3430267,11.1352789 15.6966357,11.1352789 15.7881523,11.2222689 C16.6046232,11.9983551 16.2292236,13.3457317 15.2037624,14.2469328 C14.9870993,14.2469328 13.2820695,14.1627912 10.088673,13.994508 C12.7166554,13.9747901 14.2628729,13.857233 14.7273254,13.6418367 C15.1396029,13.4506373 15.3658255,12.8046791 15.2037624,11.7463205 C15.1647019,11.5481686 15.0058895,11.3734847 14.7273254,11.2222689 Z" id="路径-35" fill="url(#radialGradient-17)" mask="url(#mask-11)"></path>
                            <path d="M13.6963677,17.0007807 C13.5462654,18.3191907 11.8497138,18.9783956 8.60671295,18.9783956 C3.74221162,18.9783956 12.8872504,20.9732196 14.2116082,19.7490112 C15.0945134,18.9328723 15.2614585,17.9448216 14.7124436,16.7848591 L13.6963677,17.0007807 Z" id="路径-2" fill="url(#radialGradient-18)" mask="url(#mask-11)"></path>
                            <path d="M0.40396763,16.0902152 C2.10739523,16.1763963 3.20749621,16.4091089 3.70427055,16.7883528 C4.44943207,17.3572187 12.1871969,19.8710855 14.4894619,16.9675156 C14.9203764,18.7527472 13.1346468,20.0833721 9.13227291,20.9593904 L0,18.4556281 L0.40396763,16.0902152 Z" id="路径-36" fill="url(#radialGradient-19)" mask="url(#mask-11)"></path>
                            <path d="M13.0575516,14.1045498 C14.1084848,14.2625391 14.6375004,14.4897345 14.6445985,14.7861362 C14.6445985,15.1335907 14.6304332,15.8893158 14.4488591,16.1923768 C14.1657556,16.6648977 13.4130112,16.7063324 11.9928265,16.7063324 C14.2675779,17.1754285 15.1324243,17.1616863 15.344136,16.0902152 C15.4260631,15.6755832 15.4729606,14.6353573 15.0745948,14.2469328 C14.5885524,14.2049667 13.9162047,14.1575057 13.0575516,14.1045498 Z" id="路径-37" fill="url(#radialGradient-20)" mask="url(#mask-11)"></path>
                            <path d="M7.32587404,1.42997137 C8.10960119,1.53853932 8.65706151,1.80117462 8.96825499,2.21787728 C9.43504522,2.84293126 9.35959692,3.89924998 8.08699272,3.89924998 C7.23858992,3.89924998 6.82639693,3.55168576 6.85041376,2.85655734 L6.85041376,1.59282329 L7.32587404,1.42997137 Z" id="路径-40" stroke="#DB9E69" stroke-width="0.52173913" fill="#FFFFFF" mask="url(#mask-11)"></path>
                            <path d="M1.20442577,9.78035469 C5.81331117,8.39680323 8.15663743,6.15479053 8.23440454,3.0543166 C8.31217164,-0.0461573357 9.08146174,-0.871711007 10.5422748,0.577655585 L9.41406644,-4.25736407 L2.47709367,2.55643534e-07 L1.20442577,9.78035469 Z" id="路径-16" fill="url(#radialGradient-21)" opacity="0.396112351" mask="url(#mask-11)"></path>
                        </g>
                        <g id="形状" stroke="none">
                            <use fill="black" fill-opacity="1" filter="url(#filter-24)" xlink:href="#path-23"></use>
                            <path stroke="url(#linearGradient-22)" stroke-width="0.52173913" d="M19.3993575,11.5623587 C20.0065193,12.1554471 19.8878013,13.9099755 18.9755915,14.7012596 C19.4416245,15.5033886 19.1211247,17.1186385 18.3109035,17.540519 C18.3755575,18.5172609 17.313924,19.7261831 15.9895785,19.8179544 C14.7486721,19.9039436 11.8802669,19.6500347 9.86804698,19.3486719 C9.5799962,19.3055316 9.26500018,19.2151645 8.86323528,19.0687431 C8.623406,18.9813384 7.65759086,18.599559 7.75326825,18.6367237 C6.21224165,18.0381302 5.1464855,17.8141224 3.94380592,17.9838782 L3.66764464,18.0228577 L3.64717979,17.7447109 C3.39488538,14.3156659 3.26867761,11.6736244 3.26867761,9.81670188 L3.26867761,9.57125899 L3.51366522,9.55631622 C4.43481066,9.50013189 5.93737002,9.189943 6.27629231,8.95613527 C6.68454993,8.67449612 7.34642282,8.20635549 7.93753198,7.7745404 C8.81238382,7.13544657 9.45269722,6.63541308 9.72293104,6.36724225 C10.1518753,5.94157255 10.1253722,5.96859609 10.2784504,5.78677602 C11.0630317,4.85488221 11.3393309,3.75133846 10.8790842,2.14700005 C10.675344,1.43448991 11.3491232,0.141903524 12.5864392,0.141903524 C13.6965564,0.141903524 15.3677765,1.29437212 15.4949714,3.12277519 C15.558639,4.0379863 15.4271064,4.63895143 15.0723201,5.33741806 C15.0457737,5.38967976 14.5634178,6.26312811 14.414468,6.58057041 C14.3575297,6.70191754 14.3037157,6.82432161 14.2522302,6.95034383 L14.2391545,6.97769252 C13.9199497,7.55631689 14.1236484,8.2368707 14.486159,8.28146416 C14.8986185,8.33663107 15.2178799,8.35152991 15.5396007,8.3321333 C15.7819999,8.317519 16.0328758,8.28377063 16.3875067,8.22061811 C16.5727496,8.18763013 17.390463,8.03106375 17.5914008,7.99389054 C18.4797867,7.82954037 19.9344509,8.49310152 19.9344311,9.69373872 C19.9344574,9.71983468 19.9344574,9.71983468 19.9345388,9.74800499 C19.9359418,10.239399 19.9068934,10.5421667 19.7774016,10.9057107 C19.690986,11.1483198 19.5665633,11.368534 19.3993575,11.5623587 Z"></path>
                        </g>
                        <g id="矩形" stroke="none" stroke-width="1" fill-rule="evenodd" transform="translate(0.914934, 8.525031)">
                            <mask id="mask-28" fill="white">
                                <use xlink:href="#path-27"></use>
                            </mask>
                            <use id="蒙版" stroke="url(#linearGradient-26)" stroke-width="0.52173913" fill="url(#linearGradient-25)" xlink:href="#path-27"></use>
                            <rect fill="url(#linearGradient-29)" mask="url(#mask-28)" x="-6.70574707e-14" y="7.94377849" width="5.48960302" height="2.74480151"></rect>
                        </g>
                        <rect id="蒙版" stroke="url(#linearGradient-26)" stroke-width="0.52173913" x="0.914933837" y="8.52503058" width="4.65001668" height="10.3333704" rx="0.64583565"></rect>
                    </g>
                </g>
            </g>
        </g>
    </g>
</svg>